<svg width="200" height="200" viewBox="0 0 200 200" fill="none" xmlns="http://www.w3.org/2000/svg">
<circle cx="100" cy="100" r="100" fill="#181818"/>
<circle cx="100" cy="100" r="100" fill="#181818"/>
<circle cx="100" cy="100" r="79.7" fill="#181818"/>
<circle cx="100" cy="100" r="79.7" fill="#181818"/>
<circle cx="100" cy="100" r="79.7" stroke="white" stroke-width="0.6"/>
<circle cx="100" cy="100" r="54.7" fill="#181818"/>
<circle cx="100" cy="100" r="54.7" fill="#181818"/>
<circle cx="100" cy="100" r="54.7" stroke="white" stroke-width="0.6"/>
<circle cx="98" cy="100" r="29.7" fill="#181818"/>
<circle cx="98" cy="100" r="29.7" fill="white"/>
<circle cx="98" cy="100" r="29.7" stroke="white" stroke-width="0.6"/>
<path d="M78.1709 160.354C77.851 160.228 77.5585 160.172 77.2936 160.188C77.0182 160.208 76.7741 160.28 76.5612 160.402C76.3378 160.529 76.1464 160.694 75.9871 160.898C75.8173 161.106 75.6802 161.34 75.5758 161.6L75.5222 161.733L74.5847 161.363L74.6384 161.229C74.7964 160.836 75.005 160.488 75.2641 160.186C75.5203 159.892 75.8159 159.66 76.1509 159.491C76.4829 159.33 76.8499 159.243 77.2518 159.23C77.6506 159.224 78.0733 159.309 78.5197 159.486C79.3828 159.827 79.9473 160.364 80.2133 161.097C80.4792 161.83 80.4035 162.716 79.9861 163.755L79.2885 165.492C78.883 166.502 78.3267 167.19 77.6195 167.555C76.9122 167.921 76.1271 167.933 75.264 167.592C74.8176 167.416 74.4531 167.186 74.1705 166.902C73.8849 166.626 73.6789 166.312 73.5526 165.961C73.4233 165.618 73.3692 165.248 73.3903 164.852C73.4084 164.463 73.4965 164.072 73.6545 163.679L73.7082 163.545L74.6456 163.916L74.592 164.049C74.498 164.305 74.4406 164.566 74.4196 164.833C74.3911 165.097 74.4155 165.347 74.4928 165.584C74.5596 165.826 74.6838 166.043 74.8652 166.235C75.0437 166.434 75.2929 166.597 75.6129 166.724C76.2155 166.962 76.7573 166.922 77.2383 166.605C77.7118 166.284 78.0916 165.768 78.3779 165.055L79.0218 163.452C79.3289 162.687 79.4171 162.038 79.2865 161.505C79.1454 160.976 78.7735 160.592 78.1709 160.354Z" fill="white"/>
<path d="M56.2599 150.033C56.5825 149.656 56.9329 149.376 57.3111 149.193C57.678 149.01 58.0513 148.906 58.4311 148.881C58.8056 148.862 59.1778 148.919 59.5477 149.053C59.9115 149.181 60.2432 149.372 60.543 149.625C60.849 149.882 61.0953 150.179 61.2822 150.514C61.4691 150.849 61.5833 151.202 61.6248 151.571C61.6611 151.947 61.6212 152.332 61.5052 152.726C61.3778 153.121 61.1528 153.506 60.8302 153.883L60.7366 153.993C60.4192 154.363 60.077 154.64 59.7101 154.822C59.3319 155.006 58.9529 155.11 58.5732 155.136C58.1873 155.156 57.8125 155.101 57.4487 154.973C57.085 154.844 56.7532 154.654 56.4534 154.401C56.1536 154.148 55.9103 153.854 55.7234 153.519C55.5365 153.184 55.4249 152.828 55.3886 152.453C55.3462 152.072 55.3887 151.684 55.516 151.289C55.6321 150.895 55.8488 150.513 56.1662 150.142L56.2599 150.033ZM59.9655 150.299C59.7452 150.114 59.5121 149.98 59.2661 149.898C59.0088 149.817 58.7474 149.791 58.4818 149.818C58.2162 149.845 57.9578 149.926 57.7065 150.059C57.4501 150.199 57.2126 150.396 56.9941 150.651L56.9004 150.761C56.6923 151.004 56.5421 151.259 56.45 151.527C56.3526 151.8 56.3118 152.069 56.3277 152.334C56.3435 152.598 56.4125 152.85 56.5345 153.089C56.6513 153.333 56.8168 153.546 57.0309 153.726C57.2451 153.907 57.4834 154.034 57.7459 154.109C58.0032 154.19 58.2647 154.217 58.5303 154.189C58.7959 154.162 59.0569 154.079 59.3133 153.939C59.5646 153.805 59.7942 153.617 60.0024 153.374L60.096 153.265C60.3146 153.009 60.4725 152.745 60.5699 152.471C60.662 152.204 60.7002 151.938 60.6844 151.674C60.6685 151.409 60.6026 151.16 60.4867 150.927C60.3595 150.694 60.1858 150.485 59.9655 150.299Z" fill="white"/>
<path d="M44.7493 133.703L44.824 133.826C45.2671 133.785 45.6603 133.862 46.0035 134.058C46.3427 134.247 46.6098 134.502 46.8048 134.824C47.0081 135.159 47.1419 135.503 47.2063 135.856C47.2638 136.213 47.249 136.566 47.162 136.916C47.0639 137.263 46.8908 137.595 46.6426 137.911C46.3945 138.227 46.0574 138.512 45.6315 138.766L45.4667 138.864C45.0476 139.114 44.6393 139.274 44.2418 139.344C43.8442 139.414 43.4712 139.408 43.1228 139.327C42.7633 139.244 42.4381 139.093 42.147 138.875C41.856 138.658 41.6129 138.388 41.4179 138.067C41.2063 137.718 41.0944 137.356 41.0823 136.981C41.0591 136.604 41.1592 136.237 41.3825 135.88L41.3078 135.757L40.5041 136.237L40.0186 135.436L44.0784 133.013C44.2845 132.89 44.3315 132.736 44.2195 132.552L44.0639 132.295L44.8058 131.852L45.1356 132.396C45.2767 132.629 45.3173 132.865 45.2575 133.106C45.1935 133.34 45.0447 133.526 44.8112 133.666L44.7493 133.703ZM45.9925 135.197C45.8473 134.957 45.6698 134.765 45.4602 134.62C45.2464 134.468 45.0135 134.369 44.7615 134.324C44.5095 134.279 44.2453 134.283 43.9688 134.336C43.6854 134.394 43.403 134.506 43.1213 134.674L42.9977 134.748C42.7229 134.912 42.4971 135.103 42.3202 135.32C42.1364 135.542 42.0077 135.777 41.9341 136.026C41.8564 136.268 41.8351 136.518 41.8703 136.777C41.8945 137.032 41.9771 137.277 42.1182 137.509C42.2634 137.748 42.4408 137.941 42.6505 138.086C42.8601 138.231 43.093 138.329 43.3491 138.381C43.5943 138.431 43.8585 138.427 44.1419 138.369C44.4183 138.316 44.694 138.208 44.9687 138.044L45.1336 137.945C45.7175 137.597 46.083 137.174 46.2302 136.676C46.3663 136.175 46.2871 135.682 45.9925 135.197Z" fill="white"/>
<path d="M34.1454 118.179C34.4267 118.117 34.6157 117.953 34.7122 117.686C34.8069 117.412 34.8076 116.953 34.714 116.31C34.6179 115.619 34.6677 115.068 34.8632 114.656C35.0492 114.239 35.4001 113.974 35.916 113.861L35.9863 113.846C36.2677 113.785 36.5347 113.788 36.7874 113.855C37.0305 113.917 37.2527 114.032 37.4541 114.201C37.6538 114.362 37.8247 114.579 37.967 114.851C38.1154 115.113 38.2269 115.412 38.3014 115.748C38.4019 116.201 38.43 116.604 38.3856 116.958C38.3316 117.305 38.2312 117.61 38.0843 117.871C37.9279 118.126 37.7368 118.336 37.5109 118.5C37.2773 118.666 37.0332 118.784 36.7788 118.856L36.3753 118.036C36.8122 117.899 37.1336 117.649 37.3395 117.285C37.5376 116.922 37.5804 116.487 37.4677 115.979C37.3724 115.55 37.214 115.224 36.9927 115.002C36.7618 114.774 36.494 114.693 36.1891 114.76C35.8609 114.832 35.655 115.012 35.5715 115.3C35.488 115.588 35.4909 116.026 35.5801 116.612C35.6823 117.294 35.6404 117.844 35.4544 118.261C35.2684 118.678 34.9214 118.943 34.4133 119.054L34.343 119.069C34.0694 119.129 33.8181 119.122 33.5888 119.049C33.3518 118.978 33.1413 118.86 32.9573 118.696C32.7715 118.524 32.6157 118.32 32.4899 118.086C32.3641 117.851 32.2709 117.597 32.2102 117.324C32.1253 116.941 32.1054 116.593 32.1507 116.28C32.1882 115.969 32.2712 115.697 32.3998 115.465C32.5206 115.233 32.6792 115.043 32.8755 114.894C33.0701 114.737 33.2733 114.619 33.4852 114.54L33.8886 115.36C33.5222 115.481 33.2629 115.698 33.1108 116.009C32.957 116.313 32.9268 116.676 33.0204 117.098C33.0569 117.262 33.1119 117.418 33.1857 117.565C33.2499 117.707 33.3301 117.828 33.4265 117.93C33.5228 118.032 33.6335 118.106 33.7585 118.153C33.8757 118.201 34.0047 118.209 34.1454 118.179Z" fill="white"/>
<path d="M30.0931 97.6409L30.2971 95.7801L27.8632 95.5176L27.9652 94.5872L30.3991 94.8496L30.6501 92.5594L31.5091 92.652L31.2581 94.9423L35.0998 95.3566C35.3384 95.3823 35.4695 95.2878 35.493 95.0731L35.6774 93.3912L36.5364 93.4838L36.3154 95.4998C36.2858 95.7701 36.1739 95.9834 35.9798 96.1394C35.7865 96.2876 35.5546 96.3471 35.2842 96.3179L31.1561 95.8727L30.9521 97.7336L30.0931 97.6409Z" fill="white"/>
<path d="M33.8133 73.0342C33.6024 72.9374 33.4581 72.7832 33.3803 72.5715C33.2986 72.3491 33.3068 72.1328 33.4048 71.9226C33.5029 71.7123 33.6621 71.5697 33.8824 71.4948C34.0988 71.4093 34.3125 71.4149 34.5234 71.5116C34.7342 71.6084 34.8805 71.7679 34.9622 71.9903C35.04 72.202 35.0298 72.413 34.9318 72.6233C34.8337 72.8335 34.6765 72.9814 34.46 73.0669C34.2397 73.1419 34.0241 73.131 33.8133 73.0342ZM39.3315 77.4412L40.2141 75.5489L36.375 73.7872L35.5837 75.4838L34.7985 75.1235L35.9854 72.5786L40.6097 74.7006L41.4314 72.9388L42.2167 73.2992L40.1168 77.8016L39.3315 77.4412Z" fill="white"/>
<path d="M51.0057 59.4555L50.3593 60.1324L46.0215 56.0569L46.668 55.3799L47.4026 56.0702L47.502 55.966C47.1848 55.163 47.3411 54.4318 47.971 53.7722C48.4461 53.2746 48.982 53.0262 49.5786 53.0269C50.1694 53.0222 50.7767 53.3129 51.4005 53.899L53.9892 56.3312L53.3428 57.0081L50.894 54.7074C50.4393 54.2801 50.0015 54.0609 49.5808 54.0498C49.16 54.0387 48.7839 54.2067 48.4524 54.5538C48.0601 54.9646 47.8936 55.4228 47.9527 55.9284C48.0116 56.4228 48.2771 56.8918 48.7494 57.3356L51.0057 59.4555Z" fill="white"/>
<path d="M69.4551 42.4116L69.3305 42.4838C69.3469 42.8903 69.2565 43.2571 69.059 43.5841C68.8645 43.9002 68.5976 44.1566 68.2585 44.3531C67.9124 44.5536 67.5525 44.6835 67.179 44.7428C66.8055 44.802 66.4361 44.7895 66.0709 44.7053C65.7127 44.617 65.369 44.4509 65.0399 44.2071C64.7136 43.9523 64.4267 43.6146 64.1793 43.194L64.0819 43.0286C63.8385 42.6149 63.6906 42.2059 63.6384 41.8016C63.5821 41.3904 63.6032 41.0084 63.7018 40.6554C63.7964 40.2955 63.9614 39.9687 64.197 39.675C64.4326 39.3813 64.7166 39.1382 65.0488 38.9457C65.4226 38.7291 65.7966 38.6234 66.1709 38.6284C66.548 38.6226 66.9074 38.7287 67.2492 38.9467L67.3738 38.8745L66.8991 38.0678L67.709 37.5985L71.4699 43.9901C71.6079 44.2246 71.6453 44.4617 71.5823 44.7017C71.5262 44.9376 71.3805 45.1237 71.1451 45.2601L67.7914 47.2033L67.3532 46.4586L70.4162 44.6839C70.6031 44.5756 70.6357 44.418 70.514 44.2112L69.4551 42.4116ZM67.8289 43.5757C68.0712 43.4354 68.2698 43.2602 68.4247 43.0502C68.5796 42.8403 68.6845 42.6084 68.7394 42.3547C68.8013 42.097 68.8102 41.8283 68.7663 41.5486C68.7184 41.2621 68.6112 40.9774 68.4449 40.6947L68.3719 40.5706C68.2096 40.2948 68.0165 40.0692 67.7926 39.8939C67.5647 39.7116 67.3225 39.5838 67.0659 39.5106C66.8162 39.4333 66.5577 39.4121 66.2904 39.4468C66.0259 39.4705 65.776 39.5506 65.5407 39.687C65.2984 39.8274 65.0964 40.0045 64.9345 40.2185C64.7796 40.4284 64.6712 40.6623 64.6094 40.92C64.5545 41.1737 64.549 41.4404 64.5929 41.7201C64.6437 41.9958 64.7502 42.2715 64.9125 42.5473L65.0099 42.7128C65.1803 43.0023 65.374 43.2368 65.5909 43.4162C65.8148 43.5916 66.0515 43.718 66.3012 43.7952C66.5537 43.8615 66.8102 43.8794 67.0706 43.8487C67.3269 43.8111 67.5797 43.7201 67.8289 43.5757Z" fill="white"/>
<path d="M109.944 30.4674L115.135 31.6673L114.922 32.5787L112.818 32.0923L111.331 38.4487L113.436 38.9352L113.223 39.8466L108.032 38.6467L108.245 37.7353L110.349 38.2218L111.836 31.8653L109.731 31.3788L109.944 30.4674Z" fill="white"/>
<path d="M123.01 43.5351L122.157 43.1499L124.643 37.742L125.496 38.1272L125.075 39.0431L125.206 39.1024C125.869 38.5415 126.616 38.4487 127.447 38.8241C128.074 39.1073 128.483 39.5291 128.675 40.0895C128.869 40.6427 128.788 41.3082 128.43 42.0859L126.947 45.3132L126.094 44.928L127.497 41.8751C127.758 41.3082 127.826 40.8253 127.701 40.4266C127.576 40.0279 127.295 39.7297 126.857 39.5322C126.34 39.2984 125.85 39.2921 125.387 39.5132C124.935 39.7304 124.573 40.1334 124.303 40.7222L123.01 43.5351Z" fill="white"/>
<path d="M163.355 65.3728L165.851 70.7235L165 71.1138L163.965 68.8953L157.181 72.0082L156.755 71.0947L163.539 67.9817L162.504 65.7632L163.355 65.3728Z" fill="white"/>
<path d="M159.901 86.5573L159.753 85.6331L168.049 84.3159L168.197 85.2401L164.713 85.7933L164.736 85.9355C165.144 86.0569 165.485 86.262 165.758 86.5507C166.033 86.8474 166.208 87.2326 166.284 87.7066C166.387 88.3464 166.257 88.8976 165.893 89.3603C165.539 89.8296 164.94 90.1314 164.094 90.2656L160.586 90.8226L160.438 89.8985L163.756 89.3716C164.372 89.2737 164.812 89.0621 165.076 88.7367C165.34 88.4114 165.434 88.0117 165.358 87.5378C165.268 86.977 165.003 86.5654 164.564 86.303C164.134 86.0472 163.599 85.9702 162.959 86.0718L159.901 86.5573Z" fill="white"/>
<path d="M163.434 102.902C162.842 102.876 162.351 103.019 161.962 103.331C161.573 103.643 161.352 104.106 161.298 104.72C161.273 104.999 161.283 105.244 161.329 105.457C161.374 105.67 161.446 105.852 161.545 106.005C161.644 106.166 161.761 106.297 161.896 106.396C162.039 106.505 162.192 106.594 162.355 106.664L162.037 107.528C161.502 107.314 161.079 106.965 160.769 106.481C160.465 106.006 160.347 105.386 160.415 104.621C160.452 104.198 160.558 103.814 160.734 103.468C160.916 103.13 161.154 102.845 161.448 102.613C161.741 102.381 162.081 102.209 162.469 102.097C162.856 101.986 163.277 101.949 163.731 101.988L164.018 102.012C164.433 102.047 164.813 102.152 165.159 102.326C165.504 102.508 165.793 102.741 166.025 103.026C166.265 103.311 166.441 103.635 166.553 103.998C166.673 104.369 166.715 104.762 166.678 105.177C166.635 105.663 166.507 106.073 166.292 106.408C166.085 106.752 165.84 107.024 165.558 107.225C165.274 107.434 164.972 107.577 164.652 107.654C164.332 107.739 164.04 107.771 163.777 107.748L163.011 107.683L163.434 102.902ZM165.793 105.101C165.817 104.838 165.795 104.588 165.727 104.349C165.667 104.119 165.569 103.91 165.433 103.722C165.297 103.542 165.13 103.387 164.932 103.258C164.742 103.137 164.529 103.051 164.293 102.999L163.955 106.824C164.211 106.83 164.448 106.786 164.665 106.692C164.881 106.606 165.069 106.481 165.228 106.318C165.386 106.163 165.515 105.977 165.615 105.761C165.713 105.552 165.773 105.333 165.793 105.101Z" fill="white"/>
<path d="M149.073 144.824L146.61 142.399L147.323 141.687L153.31 147.579L151.188 149.7C150.883 150.006 150.571 150.227 150.254 150.363C149.942 150.505 149.638 150.577 149.343 150.578C149.042 150.585 148.755 150.527 148.482 150.404C148.209 150.292 147.964 150.13 147.747 149.917L147.491 149.664C147.274 149.451 147.105 149.206 146.985 148.931C146.859 148.661 146.796 148.374 146.794 148.07C146.799 147.771 146.869 147.464 147.004 147.148C147.145 146.837 147.365 146.532 147.665 146.232L149.073 144.824ZM149.74 145.48L148.417 146.804C147.625 147.596 147.571 148.328 148.255 149.002L148.409 149.153C148.711 149.451 149.052 149.59 149.433 149.572C149.813 149.565 150.204 149.361 150.606 148.959L151.93 147.635L149.74 145.48Z" fill="white"/>
<path d="M142.028 157.28L140.473 158.407L134.848 152.643L134.731 152.728L138.53 159.815L136.976 160.942L132.008 154.169L132.766 153.619L137.478 160.044L137.595 159.96L133.796 152.873L135.272 151.802L140.898 157.565L141.015 157.481L136.302 151.056L137.06 150.506L142.028 157.28Z" fill="white"/>
</svg>
