<svg width="200" height="200" viewBox="0 0 200 200" fill="none" xmlns="http://www.w3.org/2000/svg">
<circle cx="100" cy="100" r="100" fill="#181818"/>
<circle cx="100" cy="100" r="100" fill="#181818"/>
<circle cx="100" cy="100" r="79.7" fill="#181818"/>
<circle cx="100" cy="100" r="79.7" fill="#181818"/>
<circle cx="100" cy="100" r="79.7" stroke="white" stroke-width="0.6"/>
<circle cx="100" cy="100" r="54.7" fill="#181818"/>
<circle cx="100" cy="100" r="54.7" fill="#181818"/>
<circle cx="100" cy="100" r="54.7" stroke="white" stroke-width="0.6"/>
<circle cx="98" cy="100" r="29.7" fill="#181818"/>
<circle cx="98" cy="100" r="29.7" fill="white"/>
<circle cx="98" cy="100" r="29.7" stroke="white" stroke-width="0.6"/>
<path d="M29.2534 104.154L28.7549 99.0904L29.6875 99.0106L30.0872 103.071L32.8611 102.834L32.4684 98.8449L33.401 98.7651L33.7937 102.754L36.5915 102.514L36.1847 98.3824L37.1173 98.3026L37.6228 103.438L29.2534 104.154Z" fill="white"/>
<path d="M37.6957 87.1352L37.4389 88.9653L31.2421 90.3004L31.3955 89.2071L37.1285 88.0693L37.1485 87.9267L31.9226 85.4519L32.0761 84.3586L37.6957 87.1352Z" fill="white"/>
<path d="M37.6095 76.5174C38.1784 76.6867 38.6961 76.6696 39.1628 76.4661C39.6294 76.2625 39.9755 75.8742 40.2012 75.301C40.3037 75.0405 40.3629 74.8031 40.3785 74.5888C40.3941 74.3745 40.3753 74.1823 40.3221 74.012C40.2718 73.8343 40.1947 73.6812 40.0907 73.5527C39.982 73.4142 39.8585 73.2917 39.72 73.1852L40.2724 72.4366C40.7331 72.7716 41.0465 73.2083 41.2125 73.7465C41.3739 74.2748 41.3139 74.8962 41.0326 75.6108C40.8772 76.0053 40.6655 76.3468 40.3974 76.6351C40.1247 76.9135 39.8127 77.1277 39.4616 77.2778C39.1105 77.428 38.7306 77.5092 38.3221 77.5215C37.9136 77.5337 37.4937 77.466 37.0622 77.3184L36.7897 77.2252C36.3961 77.0905 36.0554 76.8979 35.7676 76.6474C35.4826 76.3894 35.2674 76.0961 35.1219 75.7676C34.9688 75.4365 34.8886 75.0838 34.8813 74.7097C34.8694 74.3255 34.9396 73.9399 35.092 73.5528C35.2708 73.0987 35.5117 72.7377 35.8147 72.4697C36.1131 72.1917 36.4282 71.9912 36.76 71.8683C37.0948 71.7379 37.4288 71.6748 37.7621 71.679C38.0983 71.6758 38.3914 71.7169 38.6411 71.8024L39.3678 72.0511L37.6095 76.5174ZM35.9322 73.8403C35.8355 74.0859 35.7862 74.3309 35.7845 74.5753C35.7782 74.8096 35.8147 75.0333 35.894 75.2462C35.9763 75.4518 36.0953 75.6403 36.2511 75.8119C36.4022 75.9734 36.5854 76.1079 36.8008 76.2154L38.2074 72.6423C37.9594 72.5743 37.7164 72.5587 37.4786 72.5956C37.2437 72.625 37.0259 72.6983 36.8252 72.8155C36.6274 72.9252 36.4496 73.0713 36.2919 73.2538C36.1371 73.4289 36.0172 73.6244 35.9322 73.8403Z" fill="white"/>
<path d="M40.2665 63.5333L41.4964 61.7577L42.1749 62.1662L42.2569 62.0478C42.0625 61.7537 41.9798 61.4523 42.0091 61.1437C42.0314 60.831 42.1451 60.5267 42.3501 60.2308C42.6917 59.7375 43.1352 59.4408 43.6806 59.3404C44.226 59.2401 44.8276 59.374 45.4856 59.7422L45.0486 60.6253C44.5757 60.3406 44.1613 60.2449 43.8054 60.3381C43.4426 60.4272 43.1518 60.6296 42.9332 60.9453C42.792 61.1491 42.7101 61.3515 42.6876 61.5522C42.6696 61.7464 42.6984 61.9362 42.774 62.1215C42.8496 62.3068 42.9674 62.4802 43.1274 62.6418C43.2875 62.8034 43.4771 62.9502 43.6964 63.0822L45.8554 64.382L46.7163 63.139L47.4565 63.5847L45.2836 66.7216L44.5434 66.276L45.3224 65.1514L41.7036 62.9727L41.0067 63.9789L40.2665 63.5333Z" fill="white"/>
<path d="M64.9693 40.6328C64.8189 40.4062 64.6376 40.2342 64.4256 40.1169C64.2205 39.9955 64.0006 39.9242 63.7661 39.9028C63.5315 39.8814 63.2903 39.9007 63.0426 39.9607C62.7949 40.0206 62.5567 40.1165 62.328 40.2485C62.1271 40.3644 61.9542 40.501 61.8094 40.6582C61.6602 40.8088 61.5438 40.9728 61.4603 41.15C61.3836 41.3233 61.3501 41.5039 61.3599 41.6918C61.3652 41.8731 61.4276 42.0537 61.547 42.2337L61.5869 42.2937C61.7152 42.487 61.8673 42.6297 62.0434 42.7217C62.215 42.807 62.4137 42.8537 62.6395 42.8617C62.8677 42.8591 63.1252 42.8212 63.412 42.7479C63.6943 42.668 64.0139 42.5574 64.3705 42.4162C65.208 42.0898 65.9131 41.9826 66.4857 42.0947C67.054 42.2001 67.5151 42.5194 67.869 43.0526L67.9487 43.1726C68.1477 43.4725 68.2759 43.7811 68.3331 44.0984C68.3929 44.405 68.3751 44.7102 68.2797 45.0141C68.1912 45.314 68.0243 45.6039 67.7788 45.8838C67.5333 46.1636 67.2062 46.4215 66.7973 46.6573C66.333 46.9252 65.8787 47.0997 65.4343 47.1809C64.9924 47.2515 64.575 47.2434 64.182 47.1567C63.7916 47.0593 63.4323 46.8933 63.104 46.6587C62.7714 46.4173 62.4834 46.1134 62.2401 45.7468L62.041 45.4468L62.9141 44.9431L63.0734 45.1831C63.4804 45.7963 63.9589 46.1563 64.5089 46.263C65.0658 46.3658 65.6561 46.2373 66.2797 45.8775C66.8202 45.5657 67.1504 45.2185 67.2703 44.836C67.3926 44.4428 67.3277 44.0562 67.0755 43.6763L67.0357 43.6163C66.7924 43.2497 66.4645 43.0517 66.0521 43.0223C65.6466 42.9889 65.0998 43.1108 64.4117 43.3879C64.0135 43.5531 63.6344 43.675 63.2745 43.7536C62.9171 43.8215 62.5836 43.8388 62.2739 43.8054C61.9599 43.7653 61.6744 43.6673 61.4176 43.5113C61.1607 43.3553 60.9327 43.1273 60.7336 42.8274L60.654 42.7074C60.4726 42.4341 60.3656 42.1502 60.333 41.8556C60.3004 41.561 60.3327 41.2704 60.43 40.9839C60.5343 40.6933 60.7031 40.4208 60.9367 40.1662C61.1727 39.901 61.4674 39.6665 61.8208 39.4626C62.2297 39.2267 62.6311 39.0735 63.0251 39.003C63.426 38.9284 63.8014 38.9238 64.1515 38.9892C64.4971 39.0479 64.8116 39.1752 65.095 39.3712C65.3809 39.5566 65.6168 39.7892 65.8026 40.0691L66.0813 40.4891L65.2082 40.9928L64.9693 40.6328Z" fill="white"/>
<path d="M80.6937 37.5771C80.866 38.0422 80.9389 38.4806 80.9123 38.8921C80.8906 39.2938 80.7961 39.66 80.6289 39.9909C80.4589 40.3144 80.2223 40.5962 79.9193 40.8365C79.6238 41.0743 79.2895 41.2533 78.9164 41.3734C78.5356 41.496 78.1503 41.5487 77.7604 41.5315C77.3705 41.5142 77.0016 41.4273 76.6538 41.2705C76.3032 41.1063 75.9826 40.8737 75.6921 40.5725C75.4064 40.2615 75.1775 39.8734 75.0052 39.4082L74.9552 39.2732C74.7857 38.8156 74.7118 38.386 74.7335 37.9843C74.7601 37.5728 74.857 37.2015 75.0242 36.8706C75.199 36.5372 75.4342 36.2516 75.7296 36.0138C76.0251 35.776 76.3594 35.597 76.7325 35.4769C77.1057 35.3567 77.4872 35.3053 77.8771 35.3225C78.267 35.3397 78.6373 35.4305 78.9879 35.5947C79.3461 35.7565 79.6681 35.9929 79.9537 36.3039C80.2442 36.6051 80.4742 36.9844 80.6437 37.4421L80.6937 37.5771ZM78.608 40.5407C78.8821 40.4525 79.1168 40.3266 79.3119 40.163C79.5118 39.9895 79.666 39.7845 79.7745 39.5481C79.883 39.3117 79.9408 39.0537 79.9482 38.7743C79.9527 38.4874 79.8966 38.1863 79.7799 37.8713L79.7299 37.7362C79.6188 37.4361 79.4678 37.1782 79.2772 36.9625C79.0837 36.7393 78.8661 36.5659 78.6242 36.4422C78.3824 36.3186 78.1254 36.246 77.8532 36.2244C77.5782 36.1954 77.3075 36.2238 77.0409 36.3096C76.7744 36.3954 76.5426 36.5288 76.3454 36.7098C76.1454 36.8833 75.9912 37.0883 75.8828 37.3247C75.7743 37.5612 75.7178 37.8228 75.7133 38.1098C75.706 38.3892 75.7579 38.679 75.869 38.9791L75.919 39.1141C76.0357 39.4292 76.1908 39.6983 76.3843 39.9215C76.5749 40.1372 76.7912 40.3069 77.033 40.4306C77.2749 40.5542 77.5281 40.6281 77.7926 40.652C78.0621 40.6661 78.3338 40.629 78.608 40.5407Z" fill="white"/>
<path d="M91.1798 37.8266C91.1523 37.5962 91.2086 37.3934 91.3488 37.218C91.496 37.0338 91.685 36.9298 91.9157 36.9058C92.1465 36.8819 92.3514 36.9451 92.5304 37.0954C92.7165 37.2369 92.8233 37.4229 92.8508 37.6532L92.9902 38.8209C93.0224 39.091 92.9614 39.3225 92.8072 39.5155C92.661 39.7076 92.4526 39.8176 92.182 39.8457L91.5733 39.9089L91.4965 39.2654L92.0575 39.2072C92.2723 39.1849 92.3655 39.0546 92.3371 38.8163L92.3015 38.5184C92.2407 38.5489 92.1745 38.5678 92.1029 38.5752C91.8801 38.5983 91.6757 38.5391 91.4896 38.3976C91.3105 38.2473 91.2073 38.057 91.1798 37.8266Z" fill="white"/>
<path d="M119.517 32.1986L124.361 33.7577L124.035 34.6354L120.152 33.3852L119.185 35.9959L123 37.224L122.675 38.1018L118.86 36.8736L117.885 39.5068L121.837 40.7791L121.512 41.6568L116.6 40.0757L119.517 32.1986Z" fill="white"/>
<path d="M132.295 46.5173L130.695 45.5938L132.188 39.5974L133.144 40.149L131.672 45.6597L131.796 45.7316L136.429 42.0439L137.385 42.5955L132.295 46.5173Z" fill="white"/>
<path d="M143.032 50.5493C142.62 50.9733 142.411 51.4254 142.404 51.9056C142.397 52.3857 142.621 52.8337 143.075 53.2494C143.282 53.4383 143.485 53.581 143.685 53.6772C143.885 53.7735 144.079 53.8317 144.266 53.8517C144.459 53.8771 144.641 53.8699 144.81 53.8301C144.991 53.7901 145.163 53.7312 145.326 53.6533L145.808 54.4179C145.283 54.6848 144.726 54.7856 144.134 54.7204C143.554 54.655 142.981 54.3632 142.414 53.8449C142.101 53.5588 141.864 53.2447 141.703 52.9025C141.553 52.5603 141.482 52.2091 141.491 51.8489C141.499 51.4888 141.586 51.1306 141.752 50.7744C141.919 50.4182 142.167 50.083 142.498 49.7688L142.706 49.5704C143.008 49.2838 143.342 49.0651 143.709 48.9143C144.082 48.7688 144.459 48.697 144.84 48.6988C145.226 48.6951 145.601 48.7624 145.965 48.9008C146.341 49.039 146.682 49.2485 146.989 49.5292C147.349 49.8585 147.593 50.2053 147.719 50.5697C147.857 50.9338 147.913 51.2825 147.887 51.6155C147.867 51.9539 147.782 52.2657 147.633 52.5509C147.489 52.8414 147.322 53.0776 147.131 53.2595L146.574 53.7885L143.032 50.5493ZM146.346 50.141C146.151 49.9628 145.936 49.8258 145.701 49.7298C145.478 49.6338 145.246 49.5787 145.006 49.5647C144.772 49.556 144.538 49.5855 144.305 49.6532C144.083 49.7208 143.873 49.8265 143.676 49.9703L146.509 52.5617C146.683 52.3745 146.804 52.1715 146.872 51.9526C146.946 51.7391 146.97 51.5234 146.945 51.3054C146.925 51.0928 146.862 50.8834 146.755 50.6771C146.653 50.4763 146.517 50.2975 146.346 50.141Z" fill="white"/>
<path d="M154.885 57.9768L156.115 59.7524L155.436 60.1609L155.518 60.2793C155.886 60.2351 156.214 60.2889 156.504 60.4406C156.8 60.5883 157.051 60.8101 157.256 61.106C157.598 61.5993 157.706 62.0982 157.579 62.6029C157.453 63.1076 157.075 63.5638 156.444 63.9714L155.76 63.2368C156.233 62.952 156.497 62.6393 156.553 62.2985C156.615 61.9535 156.536 61.6232 156.318 61.3076C156.177 61.1037 156.012 60.9509 155.825 60.8491C155.643 60.754 155.446 60.7004 155.233 60.6884C155.021 60.6764 154.803 60.7052 154.579 60.7747C154.355 60.8442 154.134 60.9449 153.915 61.077L151.756 62.3768L152.617 63.6197L151.876 64.0653L149.704 60.9284L150.444 60.4828L151.223 61.6073L154.841 59.4286L154.145 58.4225L154.885 57.9768Z" fill="white"/>
<path d="M167.546 88.6158C167.816 88.5829 168.046 88.4984 168.237 88.3623C168.429 88.2341 168.58 88.0707 168.689 87.872C168.799 87.6733 168.872 87.4508 168.911 87.2044C168.949 86.958 168.949 86.7041 168.913 86.4426C168.88 86.2129 168.818 85.9989 168.726 85.8007C168.641 85.6015 168.532 85.4255 168.397 85.2727C168.264 85.1278 168.107 85.018 167.927 84.9433C167.755 84.8676 167.561 84.8428 167.347 84.8689L167.275 84.8777C167.045 84.9058 166.853 84.9775 166.7 85.0929C166.554 85.2074 166.435 85.363 166.341 85.5597C166.257 85.7634 166.194 86.0087 166.154 86.2957C166.121 86.5817 166.103 86.9143 166.1 87.2934C166.087 88.1813 165.919 88.8545 165.596 89.313C165.281 89.7705 164.805 90.038 164.17 90.1155L164.027 90.1329C163.67 90.1765 163.331 90.1533 163.012 90.0634C162.701 89.9804 162.422 89.8292 162.173 89.6098C161.925 89.3982 161.716 89.1215 161.547 88.7795C161.378 88.4375 161.261 88.0329 161.195 87.5654C161.121 87.0346 161.13 86.5541 161.223 86.1237C161.325 85.7003 161.492 85.3335 161.723 85.0232C161.963 84.72 162.256 84.4748 162.601 84.2876C162.954 84.0995 163.349 83.9787 163.786 83.9255L164.143 83.8819L164.283 84.8801L163.997 84.915C163.267 85.0041 162.747 85.269 162.437 85.7097C162.128 86.1583 162.024 86.7391 162.124 87.4521C162.211 88.07 162.411 88.517 162.724 88.7931C163.047 89.076 163.434 89.1899 163.887 89.1347L163.958 89.126C164.395 89.0727 164.706 88.8696 164.891 88.5167C165.076 88.1717 165.17 87.6325 165.172 86.8989C165.169 86.4723 165.199 86.0818 165.262 85.7276C165.335 85.3803 165.446 85.0767 165.595 84.8168C165.752 84.5558 165.953 84.346 166.197 84.1873C166.441 84.0286 166.742 83.9274 167.1 83.8838L167.243 83.8664C167.568 83.8267 167.875 83.8577 168.164 83.9594C168.453 84.0612 168.714 84.2187 168.946 84.4322C169.179 84.6536 169.37 84.9243 169.52 85.2445C169.679 85.5716 169.787 85.9371 169.843 86.3412C169.909 86.8086 169.9 87.2328 169.816 87.6137C169.733 88.0025 169.595 88.3377 169.4 88.6193C169.213 88.8999 168.974 89.1225 168.682 89.2871C168.399 89.4586 168.091 89.5647 167.757 89.6053L167.257 89.6664L167.117 88.6682L167.546 88.6158Z" fill="white"/>
<path d="M164.292 103.469C163.798 103.427 163.367 103.306 163.001 103.106C162.642 102.915 162.345 102.672 162.108 102.379C161.88 102.087 161.716 101.752 161.617 101.374C161.516 101.004 161.485 100.624 161.524 100.234C161.563 99.8357 161.668 99.4634 161.839 99.1167C162.01 98.77 162.236 98.4722 162.518 98.2234C162.807 97.9752 163.148 97.7835 163.539 97.6484C163.937 97.5219 164.383 97.4798 164.877 97.5221L165.021 97.5344C165.507 97.576 165.93 97.6924 166.289 97.8837C166.655 98.0837 166.956 98.3302 167.192 98.6234C167.428 98.9246 167.596 99.2601 167.696 99.63C167.796 99.9998 167.827 100.38 167.789 100.77C167.751 101.16 167.646 101.528 167.475 101.875C167.304 102.222 167.074 102.519 166.784 102.767C166.494 103.024 166.15 103.215 165.751 103.341C165.36 103.476 164.922 103.523 164.435 103.482L164.292 103.469ZM162.409 100.31C162.38 100.596 162.402 100.863 162.474 101.11C162.554 101.366 162.68 101.593 162.853 101.793C163.027 101.992 163.24 102.155 163.493 102.281C163.753 102.408 164.051 102.485 164.386 102.514L164.529 102.526C164.848 102.554 165.144 102.527 165.417 102.446C165.699 102.365 165.944 102.242 166.153 102.075C166.363 101.908 166.531 101.706 166.659 101.468C166.795 101.231 166.877 100.973 166.904 100.694C166.932 100.416 166.902 100.148 166.814 99.8917C166.735 99.636 166.609 99.4084 166.435 99.209C166.262 99.0095 166.045 98.8464 165.784 98.7197C165.531 98.5937 165.246 98.517 164.927 98.4898L164.783 98.4775C164.449 98.4488 164.141 98.4747 163.859 98.555C163.586 98.636 163.345 98.7598 163.136 98.9266C162.926 99.0933 162.758 99.2917 162.631 99.5217C162.511 99.7603 162.437 100.023 162.409 100.31Z" fill="white"/>
</svg>
