<svg width="200" height="200" viewBox="0 0 200 200" fill="none" xmlns="http://www.w3.org/2000/svg">
<circle cx="100" cy="100" r="100" fill="#181818"/>
<circle cx="100" cy="100" r="100" fill="#181818"/>
<circle cx="100" cy="100" r="79.7" fill="#181818"/>
<circle cx="100" cy="100" r="79.7" fill="#181818"/>
<circle cx="100" cy="100" r="79.7" stroke="white" stroke-width="0.6"/>
<circle cx="100" cy="100" r="54.7" fill="#181818"/>
<circle cx="100" cy="100" r="54.7" fill="#181818"/>
<circle cx="100" cy="100" r="54.7" stroke="white" stroke-width="0.6"/>
<circle cx="98" cy="100" r="29.7" fill="#181818"/>
<circle cx="98" cy="100" r="29.7" fill="white"/>
<circle cx="98" cy="100" r="29.7" stroke="white" stroke-width="0.6"/>
<path d="M89.9168 162.154L87.5817 170.563L86.5636 170.28L87.6035 166.535L83.1206 165.287L82.0808 169.031L81.0627 168.748L83.3978 160.339L84.4158 160.622L83.3714 164.383L87.8543 165.632L88.8987 161.871L89.9168 162.154Z" fill="white"/>
<path d="M49.9991 151.476L49.2556 150.725L53.3564 146.654C53.7798 146.234 54.2567 145.958 54.7873 145.828C55.3138 145.697 55.8517 145.718 56.401 145.889C56.9483 146.062 57.4628 146.392 57.9444 146.879C58.4261 147.365 58.7511 147.883 58.9193 148.433C59.0856 148.985 59.1023 149.524 58.9695 150.052C58.8327 150.581 58.5526 151.055 58.1292 151.475L54.0284 155.546L53.2849 154.795L57.3252 150.784C57.6277 150.484 57.8309 150.15 57.9348 149.783C58.0368 149.417 58.0334 149.044 57.9246 148.664C57.8119 148.283 57.5846 147.921 57.2428 147.575C56.901 147.23 56.5407 146.999 56.1618 146.883C55.7809 146.769 55.4085 146.762 55.0448 146.863C54.677 146.964 54.3418 147.165 54.0394 147.465L49.9991 151.476Z" fill="white"/>
<path d="M31.841 125.298L31.5593 124.068L37.9575 119.555L37.9346 119.456L30.2119 118.187L29.9303 116.957L38.436 115.003L38.6568 115.967L32.1944 117.451L32.2134 117.535L39.2848 118.708L39.4979 119.639L33.6446 123.782L33.6636 123.865L40.126 122.38L40.3467 123.344L31.841 125.298Z" fill="white"/>
<path d="M37.452 87.0901L29.146 84.4116L30.08 81.5069C30.2661 80.9282 30.5197 80.4831 30.8406 80.1717C31.1589 79.8594 31.5152 79.6653 31.9097 79.5896C32.3014 79.5129 32.7 79.54 33.1056 79.6707C33.4625 79.7858 33.7367 79.9444 33.9284 80.1465C34.1209 80.3459 34.2517 80.5702 34.3208 80.8193C34.3908 81.0657 34.4199 81.3184 34.4083 81.5773L34.4894 81.6035C34.5874 81.3545 34.7588 81.1277 35.0036 80.9231C35.2485 80.7185 35.5502 80.5785 35.9087 80.503C36.2671 80.4276 36.6654 80.4605 37.1034 80.6017C37.5198 80.736 37.8638 80.9514 38.1355 81.248C38.4072 81.5446 38.5747 81.9284 38.6381 82.3996C38.7014 82.8707 38.6279 83.4336 38.4174 84.088L37.452 87.0901ZM36.8833 85.7962L37.5251 83.8003C37.7365 83.1431 37.7594 82.6356 37.594 82.2778C37.4267 81.9164 37.1605 81.6768 36.7955 81.5591C36.5143 81.4685 36.2317 81.4564 35.9477 81.523C35.661 81.5888 35.4033 81.7311 35.1748 81.9499C34.9436 82.1679 34.7697 82.458 34.6531 82.8204L33.9956 84.8651L36.8833 85.7962ZM33.1196 84.5826L33.7197 82.7164C33.8171 82.4135 33.8455 82.1212 33.8048 81.8394C33.7649 81.555 33.6599 81.3062 33.4897 81.0931C33.3204 80.8773 33.0897 80.7223 32.7977 80.6281C32.4327 80.5104 32.0822 80.5377 31.7463 80.71C31.4077 80.8814 31.1497 81.2429 30.9723 81.7946L30.3617 83.6932L33.1196 84.5826Z" fill="white"/>
<path d="M50.2572 60.144L44.0235 54.0361L44.7621 53.2802L50.3261 58.732L53.1613 55.8303L53.8309 56.4864L50.2572 60.144Z" fill="white"/>
<path d="M68.5402 34.794L69.6836 34.3976L73.3018 37.4548L73.3984 37.4213L74.354 32.7782L75.4974 32.3817L74.1947 38.2638L75.37 41.6629L74.3715 42.0091L73.1962 38.61L68.5402 34.794Z" fill="white"/>
<path d="M129.177 37.4258C129.332 37.0192 129.303 36.6259 129.091 36.2457C128.879 35.8656 128.539 35.553 128.071 35.308C127.729 35.1289 127.4 35.0276 127.086 35.0041C126.774 34.9819 126.495 35.0302 126.251 35.1491C126.009 35.2693 125.823 35.4528 125.694 35.6996C125.587 35.9061 125.543 36.1094 125.564 36.3094C125.588 36.5081 125.653 36.6975 125.758 36.8773C125.864 37.0547 125.986 37.2197 126.124 37.3722C126.264 37.5222 126.395 37.6536 126.519 37.7665L127.194 38.389C127.368 38.5472 127.554 38.7375 127.752 38.9597C127.953 39.1833 128.124 39.435 128.267 39.7147C128.413 39.9932 128.495 40.296 128.514 40.6231C128.532 40.9501 128.447 41.295 128.257 41.6577C128.039 42.0758 127.733 42.3963 127.337 42.6192C126.945 42.8435 126.488 42.9457 125.966 42.9261C125.447 42.9078 124.89 42.7432 124.296 42.4324C123.742 42.1426 123.31 41.8023 122.998 41.4114C122.688 41.0219 122.501 40.6066 122.436 40.1655C122.374 39.7258 122.439 39.2865 122.629 38.8475L123.596 39.3533C123.468 39.6586 123.44 39.9518 123.512 40.2327C123.587 40.5125 123.732 40.7682 123.948 40.9996C124.167 41.2299 124.431 41.4254 124.738 41.5861C125.095 41.7731 125.446 41.8831 125.791 41.9161C126.138 41.9465 126.448 41.9007 126.723 41.7785C127 41.6539 127.212 41.4505 127.359 41.1684C127.493 40.9115 127.53 40.6649 127.471 40.4287C127.412 40.1924 127.291 39.9627 127.11 39.7394C126.928 39.5162 126.721 39.2957 126.489 39.0779L125.679 38.308C125.166 37.8181 124.817 37.3198 124.633 36.813C124.448 36.3063 124.492 35.7922 124.764 35.2708C124.99 34.8376 125.305 34.521 125.707 34.3211C126.113 34.12 126.562 34.0341 127.053 34.0634C127.548 34.0914 128.042 34.2345 128.535 34.4927C129.033 34.7535 129.43 35.0747 129.724 35.4563C130.02 35.8355 130.201 36.2379 130.267 36.6637C130.336 37.0909 130.274 37.5029 130.083 37.8999L129.177 37.4258Z" fill="white"/>
<path d="M157.097 58.2556L157.683 59.1346L152.882 62.3493C152.386 62.6812 151.865 62.8605 151.32 62.8874C150.778 62.9151 150.254 62.7925 149.747 62.5197C149.243 62.2453 148.801 61.8235 148.42 61.254C148.04 60.6846 147.82 60.1142 147.759 59.5427C147.701 58.9696 147.788 58.4365 148.019 57.9434C148.254 57.4511 148.619 57.039 149.115 56.7071L153.916 53.4924L154.503 54.3713L149.772 57.5386C149.418 57.7757 149.155 58.0646 148.983 58.4055C148.813 58.7448 148.746 59.1115 148.78 59.5056C148.818 59.9005 148.972 60.3 149.242 60.704C149.512 61.1081 149.821 61.4032 150.171 61.5895C150.523 61.7743 150.888 61.8517 151.264 61.822C151.644 61.793 152.012 61.66 152.366 61.4229L157.097 58.2556Z" fill="white"/>
<path d="M160.724 87.2506L169.417 86.471L169.688 89.51C169.743 90.1156 169.683 90.6244 169.508 91.0365C169.337 91.4483 169.084 91.7662 168.751 91.9901C168.42 92.2137 168.042 92.3445 167.618 92.3826C167.244 92.4161 166.93 92.3773 166.675 92.2661C166.42 92.1578 166.212 92.0024 166.051 91.8C165.891 91.6005 165.765 91.3793 165.675 91.1364L165.59 91.144C165.597 91.4115 165.528 91.6873 165.382 91.9713C165.236 92.2553 165.013 92.5021 164.712 92.7116C164.412 92.9211 164.032 93.0464 163.574 93.0876C163.138 93.1266 162.737 93.0627 162.371 92.8959C162.006 92.729 161.702 92.4411 161.46 92.0321C161.218 91.6231 161.066 91.0762 161.005 90.3914L160.724 87.2506ZM161.752 88.2194L161.939 90.3077C162 90.9953 162.177 91.4715 162.469 91.7362C162.764 92.0036 163.102 92.1201 163.484 92.0859C163.778 92.0595 164.043 91.9601 164.279 91.7878C164.517 91.6153 164.699 91.3836 164.824 91.0929C164.952 90.8019 164.999 90.4668 164.965 90.0876L164.774 87.9484L161.752 88.2194ZM165.691 87.8662L165.865 89.8187C165.894 90.1356 165.982 90.4158 166.129 90.6593C166.276 90.9056 166.47 91.0936 166.71 91.2233C166.95 91.3558 167.223 91.4083 167.528 91.3809C167.91 91.3467 168.222 91.1846 168.465 90.8948C168.71 90.6047 168.806 90.171 168.755 89.5938L168.577 87.6074L165.691 87.8662Z" fill="white"/>
<path d="M166.858 119.798L167.724 120.157L165.225 126.206L164.359 125.848L165.407 123.311L158.21 120.33L158.613 119.354L165.81 122.334L166.858 119.798Z" fill="white"/>
<path d="M144.548 143.085L150.269 149.675L149.472 150.369L144.365 144.486L141.306 147.15L140.691 146.442L144.548 143.085Z" fill="white"/>
<path d="M124.285 166.877L123.113 167.18L119.752 163.841L119.653 163.866L118.327 168.417L117.155 168.72L118.927 162.963L118.029 159.48L119.052 159.215L119.95 162.698L124.285 166.877Z" fill="white"/>
</svg>
