<svg width="200" height="200" viewBox="0 0 200 200" fill="none" xmlns="http://www.w3.org/2000/svg">
<circle cx="100" cy="100" r="100" fill="#181818"/>
<circle cx="100" cy="100" r="100" fill="#181818"/>
<circle cx="100" cy="100" r="79.7" fill="#181818"/>
<circle cx="100" cy="100" r="79.7" fill="#181818"/>
<circle cx="100" cy="100" r="79.7" stroke="white" stroke-width="0.6"/>
<circle cx="100" cy="100" r="54.7" fill="#181818"/>
<circle cx="100" cy="100" r="54.7" fill="#181818"/>
<circle cx="100" cy="100" r="54.7" stroke="white" stroke-width="0.6"/>
<circle cx="98" cy="100" r="29.7" fill="#181818"/>
<circle cx="98" cy="100" r="29.7" fill="white"/>
<circle cx="98" cy="100" r="29.7" stroke="white" stroke-width="0.6"/>
<path d="M38.3385 112.932L38.5374 113.92L30.2768 115.444L30.0778 114.455L33.7361 113.781L33.6817 113.51L29.3863 111.02L29.14 109.797L29.2108 109.784L33.8863 112.46L34.0279 112.434L37.3014 108.145L37.3722 108.132L37.6233 109.379L34.6021 113.34L34.6566 113.611L38.3385 112.932Z" fill="white"/>
<path d="M34.8674 87.2543C35.4097 87.4873 35.9029 87.5202 36.3469 87.353C36.7909 87.1857 37.1197 86.8132 37.3332 86.2354C37.4303 85.9727 37.486 85.7301 37.5004 85.5073C37.5148 85.2846 37.4964 85.0815 37.4453 84.8981C37.397 84.7072 37.3232 84.5394 37.2238 84.3947C37.1199 84.239 37.002 84.0987 36.8698 83.9736L37.3942 83.2443C37.8339 83.6402 38.1334 84.1279 38.2929 84.7076C38.4478 85.2763 38.3922 85.9208 38.1259 86.6412C37.9789 87.0389 37.7781 87.3755 37.5233 87.651C37.2642 87.9156 36.9676 88.1092 36.6335 88.2319C36.2993 88.3546 35.9377 88.4024 35.5487 88.3751C35.1596 88.3479 34.7594 88.2359 34.348 88.039L34.0882 87.9147C33.713 87.7351 33.388 87.5001 33.1132 87.2096C32.8411 86.9117 32.6354 86.5836 32.496 86.2255C32.3494 85.8639 32.2722 85.487 32.2643 85.0946C32.252 84.6914 32.318 84.2946 32.4622 83.9044C32.6314 83.4467 32.86 83.0925 33.148 82.8417C33.4316 82.58 33.7313 82.4011 34.0471 82.3049C34.3657 82.2013 34.6837 82.168 35.0012 82.2052C35.3215 82.2348 35.6007 82.3066 35.8388 82.4205L36.5316 82.752L34.8674 87.2543ZM33.2632 84.2877C33.1717 84.5354 33.1254 84.787 33.1244 85.0426C33.1189 85.2872 33.1541 85.5249 33.2302 85.7556C33.3091 85.9788 33.4229 86.1878 33.5717 86.3826C33.7161 86.5665 33.8909 86.7252 34.0963 86.8588L35.4277 83.257C35.1912 83.1615 34.9598 83.1214 34.7333 83.1367C34.5096 83.1445 34.3023 83.1998 34.1114 83.3027C33.9233 83.3981 33.7543 83.5336 33.6045 83.7092C33.4574 83.8773 33.3437 84.0701 33.2632 84.2877Z" fill="white"/>
<path d="M45.5468 63.9177C45.9751 64.3226 46.4218 64.519 46.8867 64.5069C47.3516 64.4949 47.7752 64.2473 48.1576 63.7643C48.3313 63.5448 48.4604 63.3306 48.5448 63.1217C48.6292 62.9128 48.677 62.7118 48.6881 62.5187C48.7043 62.3194 48.6893 62.1337 48.6434 61.9616C48.5968 61.7776 48.5322 61.6035 48.4497 61.4393L49.1684 60.9148C49.4497 61.4416 49.5717 62.0097 49.5345 62.6192C49.4967 63.2167 49.2395 63.8165 48.7628 64.4187C48.4997 64.7511 48.2061 65.007 47.8821 65.1862C47.5575 65.3534 47.2207 65.44 46.8719 65.4461C46.523 65.4521 46.1726 65.3771 45.8207 65.2209C45.4687 65.0647 45.1335 64.8234 44.815 64.4971L44.6138 64.2909C44.3233 63.9932 44.097 63.6591 43.935 63.2885C43.7779 62.9117 43.6919 62.5281 43.6769 62.1379C43.6564 61.742 43.7051 61.3545 43.823 60.9754C43.9402 60.5843 44.128 60.2257 44.3862 59.8995C44.689 59.5169 45.014 59.2534 45.3609 59.1091C45.7073 58.9528 46.0422 58.8813 46.3656 58.8946C46.6939 58.9017 46.9993 58.976 47.2818 59.1178C47.5692 59.2533 47.8051 59.4155 47.9895 59.6044L48.5259 60.1541L45.5468 63.9177ZM45.0063 60.5351C44.8425 60.7421 44.7193 60.968 44.6368 61.2129C44.5536 61.4458 44.5105 61.6856 44.5074 61.9324C44.5093 62.173 44.5481 62.4115 44.6239 62.6482C44.699 62.8729 44.8105 63.0837 44.9582 63.2806L47.3415 60.2696C47.1528 60.099 46.951 59.9831 46.7363 59.9221C46.5264 59.8547 46.3166 59.8385 46.1068 59.8735C45.902 59.9022 45.7021 59.9757 45.5072 60.0941C45.3173 60.2062 45.1503 60.3532 45.0063 60.5351Z" fill="white"/>
<path d="M64.7665 50.3642L63.9729 50.8606L60.34 43.3401L61.1336 42.8438L61.5407 43.6866L61.6628 43.6102C61.6825 43.1758 61.8084 42.7782 62.0404 42.4173C62.2689 42.0493 62.5662 41.7508 62.9325 41.5217C63.2445 41.3266 63.5691 41.2033 63.9064 41.1518C64.2436 41.1004 64.5731 41.1241 64.8947 41.2232C65.2231 41.3179 65.5301 41.4964 65.8158 41.7586C66.1082 42.0166 66.3588 42.3617 66.5676 42.7939L66.672 43.01C66.8843 43.4494 67.0111 43.8766 67.0526 44.2915C67.0941 44.7064 67.0619 45.097 66.9563 45.4633C66.8573 45.8253 66.695 46.1566 66.4693 46.4572C66.2401 46.7506 65.9661 46.997 65.6473 47.1964C65.4845 47.2982 65.3079 47.3805 65.1175 47.4434C64.9305 47.5134 64.7399 47.5576 64.5456 47.5759C64.3546 47.5828 64.1669 47.5689 63.9823 47.5342C63.7943 47.4924 63.6162 47.4162 63.4479 47.3056L63.3259 47.382L64.7665 50.3642ZM65.0983 46.4986C65.3425 46.3459 65.5454 46.1627 65.7071 45.949C65.8654 45.7281 65.9791 45.4881 66.0483 45.2291C66.1242 44.9659 66.1455 44.69 66.1121 44.4013C66.0854 44.1085 66.0007 43.8144 65.8581 43.519L65.7537 43.3029C65.6145 43.0148 65.4451 42.783 65.2456 42.6077C65.0494 42.4209 64.8332 42.2934 64.5972 42.2253C64.3644 42.1457 64.1203 42.1249 63.8648 42.1627C63.6161 42.1963 63.373 42.2874 63.1356 42.4358C62.8982 42.5843 62.7022 42.7726 62.5474 43.0007C62.3892 43.2216 62.2738 43.4673 62.2013 43.7377C62.1356 44.0039 62.1178 44.2871 62.148 44.5871C62.1746 44.88 62.2575 45.1705 62.3967 45.4587L62.4594 45.5883C62.602 45.8837 62.7766 46.1262 62.9831 46.316C63.1861 46.4986 63.404 46.6296 63.6367 46.7092C63.8763 46.7845 64.1204 46.8054 64.3691 46.7717C64.6178 46.7381 64.8609 46.6471 65.0983 46.4986Z" fill="white"/>
<path d="M108.531 32.4016L112.207 33.109L111.615 37.0972L110.696 36.9204L110.844 35.9233L110.702 35.8961C110.517 36.2186 110.24 36.4542 109.87 36.6028C109.5 36.7515 109.092 36.7827 108.644 36.6966C107.756 36.5257 107.1 36.1024 106.675 35.4265C106.258 34.7521 106.132 33.861 106.297 32.7531L106.572 30.9015C106.732 29.8253 107.111 29.0396 107.71 28.5444C108.309 28.0491 109.064 27.8892 109.975 28.0645C110.447 28.1552 110.851 28.3145 111.189 28.5423C111.528 28.7622 111.799 29.034 112.001 29.3578C112.205 29.6737 112.342 30.0297 112.412 30.4258C112.484 30.814 112.489 31.2178 112.426 31.6372L112.405 31.7796L111.415 31.5892L111.436 31.4467C111.476 31.1777 111.476 30.909 111.435 30.6407C111.402 30.3739 111.321 30.1304 111.192 29.9102C111.072 29.6837 110.899 29.4916 110.672 29.3339C110.454 29.1699 110.176 29.0554 109.838 28.9904C109.202 28.8679 108.688 29.0092 108.296 29.4141C107.913 29.8205 107.664 30.4035 107.551 31.1631L107.297 32.8724C107.176 33.6874 107.24 34.3467 107.488 34.8503C107.746 35.3475 108.2 35.6589 108.852 35.7843C109.442 35.8977 109.929 35.7962 110.316 35.4799C110.71 35.165 110.958 34.6674 111.059 33.9868L111.08 33.8444L108.393 33.3274L108.531 32.4016Z" fill="white"/>
<path d="M133.803 43.2507C133.587 43.6974 133.325 44.049 133.015 44.3057C132.716 44.5594 132.394 44.733 132.048 44.8265C131.706 44.9128 131.35 44.9196 130.978 44.8469C130.614 44.7785 130.266 44.6404 129.933 44.4325C129.594 44.2204 129.302 43.9577 129.055 43.6443C128.809 43.331 128.627 42.987 128.507 42.6122C128.392 42.2303 128.344 41.8255 128.365 41.3978C128.397 40.9672 128.52 40.5286 128.736 40.082L128.799 39.9523C129.011 39.5129 129.267 39.1663 129.566 38.9126C129.876 38.6559 130.203 38.4808 130.548 38.3874C130.901 38.2981 131.259 38.2877 131.623 38.3561C131.988 38.4246 132.336 38.5627 132.668 38.7706C133.001 38.9784 133.29 39.239 133.536 39.5524C133.782 39.8657 133.963 40.2134 134.079 40.5953C134.201 40.9815 134.247 41.3899 134.216 41.8205C134.195 42.2481 134.078 42.6817 133.866 43.1211L133.803 43.2507ZM130.32 43.6329C130.564 43.7856 130.808 43.8824 131.054 43.9232C131.309 43.9611 131.557 43.9423 131.796 43.867C132.036 43.7917 132.257 43.6628 132.46 43.4802C132.666 43.2904 132.843 43.0443 132.989 42.7417L133.052 42.612C133.191 42.3239 133.274 42.0334 133.3 41.7405C133.331 41.4405 133.309 41.1552 133.237 40.8848C133.164 40.6143 133.046 40.3665 132.881 40.1414C132.719 39.909 132.52 39.7186 132.282 39.5701C132.045 39.4217 131.797 39.3321 131.538 39.3015C131.282 39.2636 131.035 39.2823 130.795 39.3577C130.556 39.433 130.333 39.5655 130.126 39.7553C129.923 39.9379 129.752 40.1732 129.613 40.4614L129.55 40.591C129.404 40.8936 129.316 41.1949 129.286 41.4949C129.259 41.7878 129.282 42.0695 129.354 42.3399C129.427 42.6104 129.542 42.856 129.701 43.0769C129.869 43.2949 130.075 43.4802 130.32 43.6329Z" fill="white"/>
<path d="M152.532 53.4365C152.694 53.2705 152.881 53.1929 153.092 53.2039C153.313 53.2153 153.496 53.312 153.64 53.494C153.784 53.6759 153.847 53.8897 153.829 54.1354C153.822 54.3816 153.737 54.5877 153.575 54.7538C153.413 54.9198 153.221 54.9971 152.999 54.9856C152.788 54.9747 152.611 54.8782 152.467 54.6963C152.323 54.5144 152.254 54.3003 152.262 54.0541C152.28 53.8084 152.37 53.6025 152.532 53.4365ZM146.681 57.013L147.977 58.6502L150.927 55.627L149.765 54.1592L150.368 53.5409L152.111 55.7426L148.557 59.3841L149.764 60.9083L149.161 61.5267L146.077 57.6313L146.681 57.013Z" fill="white"/>
<path d="M159.18 78.8712L158.856 77.9932L164.225 75.424L164.549 76.302L163.64 76.7371L163.69 76.8721C164.525 76.8789 165.1 77.31 165.416 78.1654C165.655 78.8107 165.65 79.418 165.402 79.9872C165.161 80.5529 164.654 81.0205 163.882 81.39L160.678 82.9232L160.354 82.0453L163.384 80.5949C163.947 80.3256 164.321 79.9922 164.505 79.5949C164.69 79.1976 164.699 78.7738 164.532 78.3236C164.335 77.7908 164.003 77.4552 163.536 77.3168C163.079 77.1824 162.558 77.2551 161.973 77.5348L159.18 78.8712Z" fill="white"/>
<path d="M166.472 106.396L166.464 106.252C166.094 106.087 165.808 105.842 165.606 105.52C165.412 105.205 165.305 104.852 165.283 104.461C165.261 104.061 165.308 103.681 165.424 103.32C165.54 102.959 165.718 102.633 165.958 102.343C166.199 102.061 166.503 101.827 166.869 101.64C167.243 101.461 167.674 101.354 168.161 101.319L168.352 101.305C168.831 101.271 169.262 101.32 169.646 101.453C170.038 101.585 170.369 101.774 170.639 102.019C170.917 102.264 171.134 102.557 171.289 102.898C171.444 103.24 171.532 103.603 171.553 103.986C171.577 104.417 171.502 104.8 171.329 105.133C171.163 105.474 170.906 105.749 170.557 105.958L170.565 106.102L171.499 106.035L171.551 106.97L164.154 107.501C163.882 107.521 163.654 107.449 163.469 107.286C163.284 107.13 163.184 106.917 163.169 106.646L162.954 102.775L163.816 102.714L164.012 106.248C164.024 106.464 164.15 106.563 164.389 106.546L166.472 106.396ZM166.17 104.421C166.185 104.701 166.252 104.956 166.369 105.189C166.486 105.421 166.645 105.618 166.846 105.78C167.048 105.95 167.283 106.077 167.552 106.162C167.829 106.247 168.131 106.277 168.459 106.253L168.602 106.243C168.921 106.22 169.21 106.147 169.467 106.025C169.733 105.901 169.956 105.741 170.138 105.543C170.319 105.354 170.455 105.132 170.545 104.877C170.644 104.629 170.685 104.369 170.67 104.098C170.655 103.818 170.588 103.558 170.471 103.318C170.354 103.086 170.194 102.885 169.993 102.715C169.791 102.553 169.556 102.429 169.287 102.345C169.019 102.268 168.725 102.241 168.405 102.264L168.214 102.277C167.879 102.301 167.582 102.371 167.324 102.486C167.067 102.608 166.847 102.764 166.665 102.954C166.492 103.151 166.36 103.373 166.27 103.62C166.187 103.866 166.154 104.133 166.17 104.421Z" fill="white"/>
</svg>
