<svg width="200" height="200" viewBox="0 0 200 200" fill="none" xmlns="http://www.w3.org/2000/svg">
<circle cx="100" cy="100" r="100" fill="#181818"/>
<circle cx="100" cy="100" r="100" fill="#181818"/>
<circle cx="100" cy="100" r="79.7" fill="#181818"/>
<circle cx="100" cy="100" r="79.7" fill="#181818"/>
<circle cx="100" cy="100" r="79.7" stroke="white" stroke-width="0.6"/>
<circle cx="100" cy="100" r="54.7" fill="#181818"/>
<circle cx="100" cy="100" r="54.7" fill="#181818"/>
<circle cx="100" cy="100" r="54.7" stroke="white" stroke-width="0.6"/>
<circle cx="98" cy="100" r="29.7" fill="#181818"/>
<circle cx="98" cy="100" r="29.7" fill="white"/>
<circle cx="98" cy="100" r="29.7" stroke="white" stroke-width="0.6"/>
<path d="M41.0262 135.872C40.7936 136.013 40.617 136.186 40.4966 136.39C40.3721 136.587 40.2988 136.799 40.2769 137.028C40.255 137.256 40.2748 137.492 40.3363 137.736C40.3979 137.979 40.4963 138.214 40.6318 138.44C40.7508 138.64 40.891 138.812 41.0524 138.957C41.207 139.107 41.3753 139.225 41.5573 139.311C41.7352 139.39 41.9205 139.427 42.1135 139.423C42.2996 139.422 42.485 139.366 42.6697 139.254L42.7313 139.217C42.9297 139.097 43.0761 138.952 43.1706 138.782C43.2582 138.617 43.3061 138.424 43.3143 138.204C43.3116 137.981 43.2727 137.729 43.1974 137.447C43.1154 137.169 43.0019 136.855 42.8569 136.503C42.5218 135.677 42.4117 134.986 42.5267 134.43C42.6349 133.878 42.9627 133.436 43.51 133.105L43.6332 133.03C43.9411 132.843 44.2579 132.726 44.5835 132.679C44.8982 132.628 45.2116 132.653 45.5235 132.754C45.8314 132.849 46.1289 133.019 46.4162 133.266C46.7035 133.513 46.9683 133.839 47.2104 134.244C47.4853 134.704 47.6645 135.152 47.7479 135.588C47.8204 136.021 47.8121 136.428 47.7231 136.809C47.6232 137.188 47.4528 137.534 47.2119 137.849C46.9642 138.167 46.6522 138.44 46.2759 138.669L45.968 138.855L45.4509 137.99L45.6972 137.841C46.3267 137.459 46.6962 137.001 46.8057 136.467C46.9112 135.926 46.7792 135.347 46.4099 134.729C46.0898 134.193 45.7334 133.862 45.3407 133.735C44.9371 133.606 44.5403 133.659 44.1503 133.895L44.0887 133.933C43.7124 134.161 43.5092 134.475 43.479 134.877C43.4447 135.272 43.5698 135.809 43.8544 136.488C44.024 136.881 44.1491 137.254 44.2298 137.607C44.2995 137.958 44.3173 138.284 44.283 138.585C44.2419 138.891 44.1413 139.167 43.9812 139.414C43.8211 139.66 43.5871 139.877 43.2792 140.063L43.156 140.138C42.8755 140.308 42.584 140.405 42.2816 140.429C41.9792 140.453 41.681 140.414 41.3868 140.312C41.0885 140.203 40.8087 140.031 40.5474 139.796C40.2752 139.559 40.0344 139.265 39.8251 138.915C39.583 138.51 39.4257 138.114 39.3532 137.728C39.2766 137.335 39.2719 136.968 39.339 136.628C39.3993 136.292 39.53 135.989 39.7312 135.717C39.9214 135.443 40.1602 135.218 40.4475 135.044L40.8786 134.783L41.3957 135.648L41.0262 135.872Z" fill="white"/>
<path d="M31.9819 116.396L31.782 115.481L37.5929 114.193L37.7929 115.108L36.7385 115.341L36.7692 115.482C37.1851 115.586 37.5358 115.767 37.8211 116.023C38.1064 116.279 38.3004 116.642 38.4029 117.111C38.4729 117.431 38.4832 117.74 38.4337 118.038C38.3902 118.327 38.2844 118.592 38.1163 118.834C37.9464 119.068 37.7172 119.275 37.4287 119.453C37.1385 119.624 36.7864 119.755 36.3725 119.847L32.9047 120.616L32.7048 119.702L36.0554 118.959C36.6646 118.824 37.0825 118.6 37.309 118.288C37.5355 117.975 37.5923 117.561 37.4795 117.045C37.3582 116.49 37.0759 116.098 36.6327 115.869C36.1799 115.633 35.6372 115.585 35.0046 115.726L31.9819 116.396Z" fill="white"/>
<path d="M36.6434 93.0517L36.5429 93.9822L32.2963 93.5173C32.0179 93.4869 31.7844 93.5257 31.5957 93.6338C31.3991 93.741 31.2857 93.9338 31.2557 94.2122C31.2273 94.4747 31.3036 94.7003 31.4843 94.8891C31.658 95.0691 31.9476 95.1813 32.3532 95.2257L36.3613 95.6645L36.2608 96.5951L31.9665 96.1249C31.704 96.0962 31.4816 96.1443 31.2991 96.2692C31.1087 96.3932 31.0006 96.5745 30.9749 96.8131C30.9439 97.0994 31.0233 97.3335 31.2129 97.5152C31.4033 97.6889 31.6655 97.7941 31.9995 97.8307L36.0792 98.2773L35.9787 99.2079L30.062 98.5601L30.1625 97.6296L30.8067 97.7001L30.8221 97.5569C30.5549 97.423 30.3685 97.2497 30.2627 97.0369C30.149 96.8233 30.1067 96.5813 30.1359 96.3108C30.1668 96.0245 30.2677 95.7981 30.4386 95.6317C30.6103 95.4574 30.8193 95.3475 31.0656 95.302L31.081 95.1588C30.5695 94.8292 30.3455 94.3701 30.409 93.7815C30.4571 93.3361 30.6372 93.0098 30.9492 92.8025C31.2542 92.5864 31.6333 92.5032 32.0866 92.5528L36.6434 93.0517Z" fill="white"/>
<path d="M40.3763 77.5837L39.9855 78.4342L34.5902 75.9209L34.981 75.0704L35.8947 75.496L35.9548 75.3652C35.3978 74.6997 35.3096 73.9526 35.6903 73.1239C35.9776 72.4988 36.4021 72.092 36.9641 71.9037C37.5187 71.712 38.1841 71.7968 38.96 72.1583L42.1798 73.6582L41.789 74.5087L38.7433 73.0899C38.1776 72.8264 37.695 72.756 37.2953 72.8787C36.8955 73.0014 36.5955 73.2808 36.3951 73.717C36.158 74.2331 36.1486 74.723 36.367 75.1865C36.5815 75.6395 36.9825 76.0027 37.5698 76.2764L40.3763 77.5837Z" fill="white"/>
<path d="M67.5347 44.7312C67.8381 44.5692 68.0696 44.3821 68.2292 44.17C68.392 43.947 68.4958 43.7148 68.5404 43.4733C68.5884 43.221 68.5864 42.9681 68.5343 42.7148C68.4856 42.4506 68.3961 42.1946 68.2656 41.9469L68.1985 41.8194L69.0877 41.3447L69.1548 41.4721C69.3524 41.8473 69.4823 42.2314 69.5445 42.6244C69.6031 43.0103 69.5882 43.3855 69.4998 43.7501C69.4078 44.1075 69.2367 44.4437 68.9866 44.7586C68.7328 45.0664 68.3942 45.3333 67.9707 45.5594C67.1521 45.9964 66.3774 46.079 65.6466 45.8072C64.9158 45.5353 64.2895 44.9039 63.7677 43.9128L62.8955 42.2564C62.3886 41.2937 62.2248 40.4245 62.4039 39.6487C62.5831 38.8729 63.082 38.2664 63.9007 37.8294C64.3241 37.6034 64.7354 37.4745 65.1346 37.4427C65.5301 37.4039 65.9024 37.45 66.2516 37.5809C66.5971 37.7048 66.9139 37.903 67.202 38.1754C67.4864 38.4407 67.7273 38.761 67.9249 39.1362L67.992 39.2636L67.1027 39.7383L67.0357 39.6109C66.9019 39.374 66.7401 39.1611 66.5502 38.9722C66.3674 38.7796 66.1607 38.6361 65.9301 38.5415C65.7029 38.4361 65.4573 38.3904 65.1934 38.4043C64.9258 38.4112 64.6402 38.4956 64.3368 38.6576C63.7651 38.9628 63.4446 39.4014 63.3751 39.9736C63.3127 40.5419 63.4605 41.1659 63.8183 41.8454L64.6233 43.3744C65.0072 44.1035 65.4447 44.5909 65.9357 44.8366C66.43 45.0715 66.963 45.0363 67.5347 44.7312Z" fill="white"/>
<path d="M89.5431 34.7827C89.6228 35.2723 89.6106 35.7202 89.5066 36.1266C89.4091 36.5238 89.2475 36.8748 89.0215 37.1797C88.7943 37.4766 88.5101 37.7222 88.1688 37.9164C87.8355 38.1093 87.4754 38.2376 87.0887 38.3015C86.694 38.3666 86.3082 38.3614 85.9311 38.2858C85.5541 38.2102 85.2108 38.0682 84.9013 37.8598C84.5905 37.6436 84.322 37.3636 84.0958 37.0198C83.8762 36.6669 83.7266 36.2456 83.6469 35.7561L83.6238 35.6139C83.5453 35.1323 83.5548 34.6929 83.6523 34.2957C83.7563 33.8893 83.9213 33.5337 84.1473 33.2288C84.3811 32.9227 84.6647 32.6731 84.998 32.4803C85.3314 32.2874 85.6914 32.159 86.0782 32.0952C86.465 32.0313 86.8469 32.0372 87.2239 32.1128C87.601 32.1884 87.9449 32.3343 88.2557 32.5506C88.5744 32.7656 88.8435 33.0495 89.0631 33.4025C89.2892 33.7462 89.4415 34.1589 89.52 34.6406L89.5431 34.7827ZM86.946 37.425C87.2301 37.3781 87.4829 37.2877 87.7042 37.1539C87.9322 37.0108 88.1216 36.8296 88.2722 36.6101C88.4229 36.3906 88.5284 36.1421 88.5886 35.8646C88.6475 35.5792 88.6499 35.2707 88.5959 34.9391L88.5728 34.7969C88.5214 34.4811 88.4231 34.2014 88.2781 33.9577C88.1318 33.7062 87.9524 33.5007 87.74 33.3411C87.5276 33.1816 87.2907 33.0707 87.0293 33.0085C86.7666 32.9383 86.4971 32.926 86.2209 32.9716C85.9446 33.0173 85.6932 33.1155 85.4665 33.2665C85.2385 33.4095 85.0492 33.5908 84.8985 33.8102C84.7478 34.0297 84.643 34.2822 84.5841 34.5676C84.5239 34.8451 84.5195 35.1417 84.5709 35.4576L84.5941 35.5997C84.6481 35.9313 84.7482 36.2229 84.8946 36.4744C85.0396 36.7181 85.2183 36.9197 85.4307 37.0792C85.6431 37.2387 85.8761 37.3503 86.1296 37.4138C86.3897 37.4682 86.6618 37.4719 86.946 37.425Z" fill="white"/>
<path d="M109.597 36.8248L109.455 36.8014C109.208 37.1254 108.904 37.3509 108.542 37.4778C108.191 37.598 107.821 37.6263 107.434 37.5624C107.04 37.4973 106.68 37.3689 106.354 37.1773C106.029 36.9858 105.752 36.7415 105.525 36.4445C105.306 36.1489 105.148 35.8024 105.05 35.4053C104.962 35.0015 104.957 34.5588 105.035 34.0771L105.066 33.8876C105.143 33.4139 105.291 33.0044 105.509 32.6594C105.729 32.3064 105.99 32.0251 106.291 31.8155C106.594 31.5979 106.93 31.4507 107.299 31.3738C107.668 31.2969 108.042 31.2897 108.421 31.3522C108.847 31.4226 109.203 31.5786 109.488 31.8202C109.782 32.0552 109.991 32.3654 110.115 32.7507L110.257 32.7742L110.407 31.8503L111.33 32.0028L110.139 39.3224C110.095 39.5909 109.972 39.7976 109.77 39.9427C109.576 40.089 109.345 40.14 109.077 40.0957L105.252 39.4644L105.391 38.6116L108.884 39.1882C109.097 39.2234 109.223 39.1226 109.262 38.8857L109.597 36.8248ZM107.601 36.6899C107.877 36.7355 108.142 36.7265 108.395 36.6629C108.649 36.5994 108.878 36.4872 109.082 36.3263C109.295 36.1668 109.474 35.9652 109.619 35.7216C109.765 35.4701 109.864 35.1824 109.917 34.8587L109.94 34.7166C109.992 34.4007 109.987 34.1041 109.927 33.8266C109.868 33.5411 109.763 33.2887 109.613 33.0692C109.47 32.8511 109.285 32.6705 109.057 32.5274C108.838 32.3778 108.594 32.2808 108.326 32.2365C108.05 32.1909 107.781 32.1992 107.519 32.2615C107.266 32.325 107.033 32.4366 106.821 32.5961C106.616 32.757 106.441 32.9592 106.296 33.2028C106.159 33.4478 106.065 33.7281 106.013 34.044L105.983 34.2335C105.929 34.5651 105.928 34.869 105.98 35.1452C106.04 35.4227 106.142 35.6706 106.284 35.8888C106.436 36.1003 106.622 36.277 106.843 36.4187C107.064 36.5526 107.317 36.643 107.601 36.6899Z" fill="white"/>
<path d="M125.746 42.5486L124.921 42.1078L127.694 36.8413L128.519 37.2821L128.05 38.174L128.177 38.2418C128.867 37.7214 129.614 37.676 130.418 38.1055C131.025 38.4295 131.408 38.8787 131.567 39.4531C131.729 40.0204 131.611 40.6828 131.212 41.4402L129.557 44.5831L128.732 44.1423L130.297 41.1693C130.588 40.6171 130.682 40.1371 130.581 39.7292C130.479 39.3212 130.216 39.0042 129.793 38.7782C129.292 38.5107 128.805 38.4731 128.333 38.6655C127.872 38.8546 127.491 39.2358 127.189 39.8092L125.746 42.5486Z" fill="white"/>
<path d="M149.033 49.3841C149.201 49.224 149.397 49.147 149.623 49.1531C149.859 49.1595 150.057 49.2472 150.216 49.4162C150.375 49.5852 150.449 49.7859 150.437 50.0184C150.436 50.2512 150.352 50.4477 150.184 50.6078C150.016 50.7679 149.814 50.8448 149.577 50.8383C149.352 50.8322 149.159 50.7447 149 50.5757C148.841 50.4067 148.762 50.2058 148.763 49.973C148.775 49.7405 148.865 49.5442 149.033 49.3841ZM142.898 52.8804L144.329 54.4012L147.385 51.4859L146.103 50.1224L146.728 49.526L148.652 51.5713L144.97 55.083L146.302 56.499L145.677 57.0953L142.273 53.4767L142.898 52.8804Z" fill="white"/>
<path d="M160.259 66.8863L161.041 68.5873L163.26 67.5536L163.65 68.4042L161.431 69.4379L162.393 71.5315L161.61 71.8963L160.648 69.8027L157.145 71.4343C156.928 71.5356 156.864 71.6845 156.954 71.8807L157.661 73.4182L156.878 73.7831L156.031 71.9402C155.917 71.6931 155.904 71.4524 155.99 71.2181C156.079 70.9912 156.247 70.8202 156.494 70.7054L160.257 68.9522L159.476 67.2511L160.259 66.8863Z" fill="white"/>
<path d="M169.805 90.0433C170.035 90.018 170.239 90.0762 170.415 90.2179C170.6 90.3666 170.705 90.5563 170.73 90.787C170.755 91.0177 170.692 91.2217 170.543 91.399C170.401 91.5835 170.216 91.6883 169.985 91.7136C169.754 91.7388 169.547 91.6771 169.362 91.5283C169.185 91.3867 169.085 91.2005 169.06 90.9698C169.035 90.7392 169.093 90.5316 169.234 90.3472C169.384 90.1698 169.574 90.0685 169.805 90.0433ZM162.799 89.0961L163.023 91.172L167.222 90.7124L167.021 88.8512L167.88 88.7571L168.181 91.5489L163.123 92.1026L163.332 94.0354L162.473 94.1294L161.94 89.1901L162.799 89.0961Z" fill="white"/>
<path d="M161.626 113.192L162.021 111.386L168.275 110.646L168.039 111.725L162.261 112.312L162.23 112.453L167.229 115.429L166.994 116.508L161.626 113.192Z" fill="white"/>
<path d="M158.219 131.476C157.7 131.189 157.198 131.101 156.714 131.209C156.23 131.318 155.83 131.637 155.514 132.166C155.37 132.406 155.272 132.632 155.22 132.844C155.168 133.056 155.153 133.252 155.175 133.434C155.193 133.622 155.241 133.792 155.319 133.942C155.4 134.103 155.497 134.251 155.612 134.386L154.952 135.024C154.566 134.594 154.339 134.092 154.272 133.518C154.208 132.955 154.372 132.344 154.766 131.685C154.984 131.321 155.247 131.022 155.554 130.787C155.865 130.564 156.202 130.413 156.566 130.334C156.93 130.255 157.31 130.252 157.705 130.323C158.101 130.394 158.493 130.548 158.883 130.784L159.13 130.933C159.485 131.149 159.78 131.412 160.014 131.722C160.244 132.039 160.401 132.377 160.485 132.736C160.575 133.1 160.591 133.47 160.534 133.847C160.479 134.235 160.345 134.607 160.132 134.964C159.882 135.383 159.587 135.696 159.249 135.903C158.914 136.12 158.576 136.257 158.236 136.313C157.891 136.375 157.558 136.37 157.238 136.297C156.914 136.232 156.639 136.131 156.413 135.994L155.756 135.596L158.219 131.476ZM159.372 134.504C159.508 134.277 159.597 134.042 159.641 133.797C159.688 133.563 159.691 133.331 159.651 133.101C159.608 132.878 159.525 132.665 159.405 132.461C159.287 132.268 159.134 132.096 158.945 131.944L156.975 135.24C157.202 135.359 157.434 135.424 157.669 135.436C157.9 135.455 158.123 135.426 158.336 135.349C158.545 135.28 158.742 135.169 158.925 135.019C159.104 134.875 159.253 134.703 159.372 134.504Z" fill="white"/>
</svg>
