<svg width="200" height="200" viewBox="0 0 200 200" fill="none" xmlns="http://www.w3.org/2000/svg">
<circle cx="100" cy="100" r="100" fill="#181818"/>
<circle cx="100" cy="100" r="100" fill="#181818"/>
<circle cx="100" cy="100" r="79.7" fill="#181818"/>
<circle cx="100" cy="100" r="79.7" fill="#181818"/>
<circle cx="100" cy="100" r="79.7" stroke="white" stroke-width="0.6"/>
<circle cx="100" cy="100" r="54.7" fill="#181818"/>
<circle cx="100" cy="100" r="54.7" fill="#181818"/>
<circle cx="100" cy="100" r="54.7" stroke="white" stroke-width="0.6"/>
<circle cx="98" cy="100" r="29.7" fill="#181818"/>
<circle cx="98" cy="100" r="29.7" fill="white"/>
<circle cx="98" cy="100" r="29.7" stroke="white" stroke-width="0.6"/>
<path d="M31.8715 111.945C31.6005 111.968 31.3656 112.044 31.1669 112.173C30.9675 112.295 30.8071 112.453 30.6855 112.648C30.564 112.843 30.4765 113.063 30.4229 113.309C30.3694 113.554 30.3527 113.808 30.3727 114.072C30.3903 114.303 30.4389 114.52 30.5184 114.721C30.59 114.924 30.688 115.104 30.8123 115.262C30.9361 115.412 31.0853 115.528 31.26 115.61C31.4267 115.692 31.6176 115.724 31.8328 115.705L31.9046 115.699C32.1357 115.68 32.3314 115.615 32.4915 115.505C32.6436 115.395 32.7725 115.244 32.8781 115.05C32.9751 114.849 33.0529 114.606 33.1113 114.32C33.1618 114.035 33.2007 113.702 33.228 113.322C33.2967 112.433 33.5066 111.765 33.8576 111.318C34.2007 110.871 34.6911 110.621 35.3288 110.566L35.4722 110.554C35.8309 110.523 36.1666 110.559 36.4792 110.661C36.7832 110.755 37.0523 110.917 37.2863 111.146C37.5198 111.367 37.7099 111.652 37.8568 112.001C38.0037 112.349 38.095 112.759 38.1309 113.23C38.1715 113.764 38.1319 114.245 38.0121 114.673C37.8836 115.093 37.6945 115.455 37.4447 115.757C37.1864 116.052 36.8793 116.287 36.5236 116.462C36.1599 116.637 35.7588 116.744 35.3204 116.781L34.9617 116.812L34.8852 115.807L35.1722 115.782C35.9055 115.72 36.4403 115.473 36.7767 115.043C37.1124 114.605 37.2529 114.027 37.1982 113.309C37.1509 112.687 36.9799 112.232 36.6852 111.944C36.3819 111.649 36.0031 111.52 35.5487 111.559L35.477 111.565C35.0386 111.603 34.7162 111.795 34.51 112.141C34.3031 112.48 34.1755 113.017 34.1271 113.752C34.1035 114.179 34.0489 114.569 33.9634 114.922C33.8694 115.267 33.7398 115.567 33.5746 115.822C33.4015 116.078 33.1883 116.28 32.935 116.43C32.6817 116.58 32.3757 116.671 32.017 116.701L31.8735 116.714C31.5467 116.741 31.2426 116.699 30.9612 116.587C30.6799 116.474 30.4305 116.307 30.213 116.084C29.9949 115.854 29.8213 115.576 29.6922 115.25C29.5545 114.916 29.4701 114.546 29.4392 114.139C29.4033 113.668 29.4392 113.244 29.5468 112.865C29.6538 112.479 29.8131 112.148 30.0249 111.873C30.2286 111.599 30.4811 111.385 30.7822 111.231C31.0748 111.069 31.3885 110.974 31.7233 110.946L32.2255 110.903L32.302 111.908L31.8715 111.945Z" fill="white"/>
<path d="M32.5335 89.4016L32.7657 88.4949L38.4407 90.2896L38.2085 91.1964L37.1787 90.8707L37.143 91.0102C37.4615 91.312 37.6888 91.6478 37.825 92.0176C37.9612 92.3874 37.9697 92.8048 37.8506 93.2698C37.7693 93.5875 37.6405 93.8651 37.4642 94.1026C37.2976 94.3347 37.0865 94.5151 36.8309 94.6437C36.5773 94.7646 36.2841 94.831 35.9512 94.843C35.6203 94.8473 35.2527 94.7855 34.8484 94.6576L31.4618 93.5865L31.694 92.6798L34.9662 93.7147C35.5612 93.9029 36.0277 93.9164 36.3658 93.7552C36.7039 93.5941 36.9385 93.2577 37.0695 92.7462C37.2104 92.196 37.1375 91.708 36.8507 91.2822C36.5584 90.8462 36.1032 90.5306 35.4854 90.3352L32.5335 89.4016Z" fill="white"/>
<path d="M47.1675 68.7225L46.6763 69.5193L43.2773 66.9315C43.0545 66.7619 42.8395 66.6783 42.6323 66.6806C42.4187 66.6781 42.2385 66.7961 42.0915 67.0344C41.953 67.2591 41.9192 67.5036 41.9902 67.7677C42.059 68.0203 42.2557 68.2701 42.5803 68.5172L45.7884 70.9596L45.2972 71.7564L41.86 69.1395C41.6499 68.9796 41.4403 68.9101 41.2311 68.9309C41.0155 68.9468 40.8447 69.057 40.7187 69.2613C40.5676 69.5064 40.5328 69.7601 40.6143 70.0223C40.7001 70.2777 40.8766 70.5071 41.1439 70.7107L44.4093 73.1967L43.9181 73.9934L39.1824 70.388L39.6736 69.5912L40.1891 69.9838L40.2647 69.8612C40.0965 69.603 40.014 69.3501 40.0171 69.1023C40.0138 68.8497 40.0836 68.6076 40.2263 68.3761C40.3774 68.1309 40.5618 67.976 40.7793 67.9115C41.0009 67.8401 41.2262 67.8465 41.4549 67.9306L41.5305 67.808C41.2404 67.2469 41.2507 66.7144 41.5613 66.2105C41.7964 65.8291 42.0915 65.6235 42.4466 65.5937C42.7996 65.5522 43.1574 65.6696 43.5202 65.9458L47.1675 68.7225Z" fill="white"/>
<path d="M57.8176 55.1863L57.127 55.8181L53.5742 51.0427L54.2648 50.4109L54.8665 51.2197L54.9727 51.1225C54.7763 50.2451 55.0145 49.4986 55.6874 48.883C56.195 48.4186 56.7283 48.222 57.2871 48.2932C57.8413 48.3579 58.3738 48.7337 58.8848 49.4205L61.005 52.2703L60.3144 52.9021L58.3088 50.2063C57.9363 49.7057 57.5536 49.4247 57.1608 49.3634C56.768 49.3021 56.3945 49.4334 56.0404 49.7574C55.6213 50.1408 55.4077 50.6005 55.3997 51.1364C55.3928 51.6605 55.5828 52.1824 55.9696 52.7023L57.8176 55.1863Z" fill="white"/>
<path d="M94.6573 28.6H96.5773L97.7053 36.568H97.8493L98.9773 28.6H100.897V37H99.9613V29.032H99.8173L98.6893 37H96.8653L95.7373 29.032H95.5933V37H94.6573V28.6Z" fill="white"/>
<path d="M117.49 36.8337C117.342 37.4089 117.377 37.9288 117.595 38.3936C117.814 38.8583 118.212 39.1982 118.789 39.4132C119.051 39.5109 119.289 39.5654 119.503 39.5767C119.716 39.5881 119.906 39.5652 120.074 39.5083C120.248 39.4541 120.398 39.3734 120.522 39.2663C120.656 39.1542 120.773 39.0276 120.874 38.8863L121.637 39.426C121.32 39.8958 120.897 40.2197 120.368 40.3976C119.849 40.5705 119.23 40.523 118.51 40.255C118.113 40.107 117.766 39.9012 117.47 39.6377C117.184 39.3693 116.961 39.0603 116.799 38.7105C116.638 38.3607 116.544 37.9807 116.518 37.5705C116.491 37.1602 116.544 36.7368 116.676 36.3002L116.759 36.0245C116.879 35.6262 117.058 35.2799 117.297 34.9855C117.544 34.6939 117.827 34.4716 118.149 34.3186C118.472 34.158 118.82 34.0702 119.191 34.0552C119.573 34.0353 119.958 34.098 120.348 34.2432C120.805 34.4135 121.172 34.6482 121.449 34.9472C121.736 35.2413 121.946 35.5539 122.079 35.8848C122.221 36.2185 122.295 36.5529 122.302 36.8879C122.317 37.2257 122.286 37.521 122.21 37.7737L121.988 38.509L117.49 36.8337ZM120.092 35.0933C119.844 35.0012 119.599 34.9568 119.356 34.96C119.123 34.9585 118.902 34.9997 118.694 35.0838C118.492 35.1707 118.309 35.2942 118.144 35.4542C117.989 35.6094 117.862 35.7963 117.762 36.0149L121.361 37.3552C121.42 37.1045 121.427 36.86 121.382 36.6218C121.344 36.3863 121.264 36.169 121.141 35.9697C121.025 35.7732 120.874 35.5975 120.687 35.4428C120.507 35.2908 120.309 35.1743 120.092 35.0933Z" fill="white"/>
<path d="M135.602 48.0523L137.257 49.4408L141.007 43.9222L139.407 42.58L139.893 41.8654L142.209 43.8093L137.974 50.0424L139.629 51.4309L139.143 52.1455L135.117 48.7669L135.602 48.0523Z" fill="white"/>
<path d="M150.956 64.0407L152.09 65.8794L157.398 61.8379L156.303 60.0605L156.99 59.5371L158.577 62.1113L152.581 66.6762L153.714 68.5149L153.027 69.0382L150.269 64.5641L150.956 64.0407Z" fill="white"/>
<path d="M164.298 89.298C163.826 89.4475 163.385 89.4988 162.977 89.4519C162.579 89.4102 162.22 89.2975 161.901 89.1136C161.59 88.9273 161.323 88.6764 161.102 88.3609C160.883 88.0532 160.725 87.7094 160.628 87.3297C160.529 86.9422 160.499 86.5536 160.54 86.1638C160.58 85.7741 160.689 85.4088 160.865 85.0682C161.049 84.7251 161.3 84.4154 161.617 84.1393C161.943 83.8685 162.343 83.6583 162.816 83.5088L162.953 83.4654C163.418 83.3182 163.85 83.2654 164.248 83.3071C164.656 83.354 165.02 83.4694 165.339 83.6533C165.66 83.845 165.93 84.0946 166.149 84.4024C166.368 84.7101 166.526 85.0539 166.623 85.4336C166.721 85.8133 166.749 86.1981 166.709 86.5879C166.668 86.9776 166.556 87.344 166.372 87.6871C166.19 88.038 165.935 88.3488 165.609 88.6196C165.292 88.8957 164.901 89.1074 164.436 89.2545L164.298 89.298ZM161.475 87.0619C161.546 87.3409 161.657 87.5822 161.809 87.7858C161.969 87.9946 162.164 88.1593 162.393 88.2796C162.621 88.4 162.874 88.4707 163.152 88.4918C163.437 88.5106 163.74 88.4693 164.06 88.368L164.198 88.3245C164.503 88.228 164.768 88.0896 164.994 87.9093C165.228 87.7265 165.413 87.517 165.55 87.2809C165.688 87.0448 165.775 86.7909 165.813 86.5193C165.858 86.2453 165.846 85.9726 165.777 85.7014C165.707 85.4301 165.588 85.1913 165.42 84.9848C165.259 84.7759 165.065 84.6113 164.836 84.4909C164.607 84.3706 164.35 84.301 164.065 84.2823C163.788 84.2612 163.496 84.2988 163.191 84.3953L163.054 84.4388C162.734 84.5401 162.457 84.6821 162.223 84.8649C161.997 85.0453 161.816 85.2535 161.678 85.4896C161.541 85.7258 161.452 85.9758 161.413 86.2396C161.383 86.5088 161.403 86.7829 161.475 87.0619Z" fill="white"/>
<path d="M163.761 112.382L163.833 110.656L169.376 110.219L169.382 110.075L163.899 109.073L163.971 107.346L169.954 106.716L169.914 107.675L164.368 108.184L164.362 108.328L169.846 109.306L169.774 111.032L164.233 111.445L164.227 111.589L169.707 112.663L169.667 113.622L163.761 112.382Z" fill="white"/>
</svg>
