<svg width="200" height="200" viewBox="0 0 200 200" fill="none" xmlns="http://www.w3.org/2000/svg">
<circle cx="100" cy="100" r="100" fill="#181818"/>
<circle cx="100" cy="100" r="100" fill="#181818"/>
<circle cx="100" cy="100" r="79.7" fill="#181818"/>
<circle cx="100" cy="100" r="79.7" fill="#181818"/>
<circle cx="100" cy="100" r="79.7" stroke="white" stroke-width="0.6"/>
<circle cx="100" cy="100" r="54.7" fill="#181818"/>
<circle cx="100" cy="100" r="54.7" fill="#181818"/>
<circle cx="100" cy="100" r="54.7" stroke="white" stroke-width="0.6"/>
<circle cx="98" cy="100" r="29.7" fill="#181818"/>
<circle cx="98" cy="100" r="29.7" fill="white"/>
<circle cx="98" cy="100" r="29.7" stroke="white" stroke-width="0.6"/>
<path d="M34.6195 120.26C34.3618 120.347 34.1515 120.477 33.9887 120.65C33.8234 120.816 33.7044 121.008 33.6318 121.227C33.5592 121.445 33.5254 121.68 33.5305 121.932C33.5356 122.184 33.5785 122.435 33.6592 122.686C33.73 122.907 33.8276 123.107 33.9517 123.284C34.0683 123.464 34.2053 123.616 34.3628 123.741C34.5178 123.857 34.6895 123.934 34.878 123.972C35.0589 124.012 35.2517 123.997 35.4563 123.928L35.5245 123.905C35.7443 123.831 35.9191 123.721 36.049 123.576C36.1712 123.433 36.2611 123.255 36.3185 123.042C36.366 122.823 36.3848 122.568 36.3751 122.275C36.3578 121.986 36.3182 121.653 36.2564 121.277C36.1164 120.396 36.1648 119.695 36.4015 119.176C36.6306 118.66 37.0483 118.299 37.6546 118.094L37.7911 118.048C38.1321 117.933 38.4662 117.888 38.7933 117.912C39.1104 117.932 39.4091 118.025 39.6895 118.192C39.9675 118.351 40.2183 118.583 40.442 118.888C40.6656 119.192 40.8496 119.569 40.9937 120.018C41.1575 120.529 41.2309 121.006 41.214 121.451C41.187 121.891 41.0875 122.287 40.9154 122.641C40.7332 122.99 40.4898 123.291 40.1851 123.546C39.8729 123.804 39.5084 124.003 39.0915 124.144L38.7505 124.259L38.4425 123.299L38.7154 123.207C39.4126 122.971 39.8745 122.604 40.1009 122.106C40.3249 121.599 40.327 121.003 40.107 120.318C39.9164 119.724 39.6446 119.322 39.2916 119.112C38.9285 118.897 38.531 118.862 38.099 119.008L38.0308 119.031C37.6139 119.172 37.3457 119.436 37.2261 119.822C37.1041 120.201 37.105 120.754 37.2289 121.48C37.3054 121.902 37.3431 122.294 37.3421 122.658C37.331 123.016 37.275 123.339 37.174 123.627C37.0654 123.917 36.9057 124.165 36.6947 124.371C36.4836 124.578 36.2076 124.738 35.8666 124.854L35.7301 124.9C35.4194 125.005 35.1144 125.036 34.8152 124.994C34.5159 124.951 34.2349 124.848 33.9721 124.683C33.7069 124.511 33.4737 124.282 33.2725 123.995C33.0613 123.703 32.8934 123.363 32.7687 122.975C32.6246 122.525 32.5607 122.104 32.5771 121.71C32.5911 121.308 32.6689 120.948 32.8104 120.63C32.9444 120.315 33.1397 120.046 33.3962 119.824C33.6426 119.598 33.925 119.43 34.2433 119.323L34.7208 119.162L35.0287 120.121L34.6195 120.26Z" fill="white"/>
<path d="M30.5489 96.6661L30.6465 95.7352L36.561 96.4022L36.4634 97.3331L35.3902 97.2121L35.3752 97.3553C35.7368 97.5893 36.0126 97.874 36.2027 98.2094C36.3928 98.5448 36.4628 98.9512 36.4127 99.4286C36.3785 99.7548 36.2912 100.051 36.1507 100.317C36.019 100.576 35.8354 100.792 35.5999 100.967C35.3653 101.134 35.0831 101.255 34.7535 101.331C34.4247 101.398 34.0496 101.408 33.6282 101.361L30.0986 100.963L30.1962 100.032L33.6066 100.416C34.2266 100.486 34.6931 100.41 35.006 100.188C35.3189 99.9653 35.5028 99.5916 35.5578 99.0665C35.6171 98.5016 35.4725 98.0385 35.1243 97.6772C34.769 97.3071 34.2694 97.0857 33.6254 97.0131L30.5489 96.6661Z" fill="white"/>
<path d="M42.269 75.2051L41.8877 76.0599L38.0362 74.2117C37.7838 74.0905 37.5522 74.0503 37.3414 74.0911C37.1233 74.1284 36.9573 74.2749 36.8433 74.5306C36.7357 74.7717 36.7379 75.0123 36.8498 75.2522C36.9577 75.4814 37.1956 75.6843 37.5635 75.8608L41.1986 77.6052L40.8173 78.4601L36.9226 76.591C36.6846 76.4768 36.4605 76.4491 36.2504 76.508C36.033 76.5633 35.8755 76.7006 35.7777 76.9198C35.6604 77.1828 35.663 77.4324 35.7853 77.6685C35.9109 77.8973 36.1252 78.0844 36.4281 78.2298L40.1282 80.0053L39.7469 80.8602L34.3808 78.2851L34.762 77.4303L35.3463 77.7106L35.4049 77.5791C35.1948 77.363 35.0728 77.1359 35.0389 76.8979C34.9977 76.6564 35.0326 76.4114 35.1433 76.163C35.2606 75.9 35.4253 75.7173 35.6373 75.615C35.8525 75.5054 36.083 75.4697 36.3287 75.5077L36.3873 75.3762C36.0077 74.8925 35.9384 74.3802 36.1795 73.8396C36.362 73.4304 36.6319 73.1785 36.9893 73.084C37.3428 72.9786 37.7251 73.0246 38.1362 73.2218L42.269 75.2051Z" fill="white"/>
<path d="M50.7566 60.946L50.1255 61.6372L45.8799 57.4657L46.511 56.7745L47.2301 57.481L47.3272 57.3747C47.0161 56.5534 47.168 55.8061 47.783 55.1326C48.2469 54.6246 48.7705 54.3713 49.3538 54.3728C49.9313 54.3687 50.5254 54.6666 51.136 55.2665L53.6696 57.7559L53.0385 58.4471L50.6418 56.0923C50.1967 55.6549 49.7685 55.4303 49.3571 55.4184C48.9457 55.4065 48.5782 55.5778 48.2546 55.9322C47.8716 56.3517 47.7093 56.8199 47.7677 57.3368C47.8258 57.8422 48.086 58.322 48.5482 58.7762L50.7566 60.946Z" fill="white"/>
<path d="M83.6644 33.6208C83.4945 32.5462 83.6191 31.6689 84.0381 30.9891C84.4571 30.3093 85.124 29.8916 86.0388 29.736C86.9537 29.5804 87.7143 29.7554 88.3206 30.2608C88.9269 30.7663 89.315 31.5563 89.4848 32.631L89.7771 34.4801C89.9519 35.5863 89.8286 36.4715 89.4071 37.1355C88.9857 37.7995 88.3175 38.2093 87.4026 38.3649C86.4878 38.5205 85.7284 38.3534 85.1246 37.8638C84.5208 37.3741 84.1315 36.5762 83.9566 35.4699L83.6644 33.6208ZM87.2565 37.4404C87.8953 37.3317 88.3381 37.0333 88.5849 36.545C88.8383 36.0475 88.9007 35.3918 88.7721 34.5779L88.5023 32.8711C88.3824 32.1125 88.124 31.5276 87.7269 31.1164C87.3378 30.7038 86.8238 30.5519 86.185 30.6605C85.5461 30.7692 85.1019 31.0841 84.8522 31.6053C84.6104 32.1252 84.5495 32.7644 84.6694 33.523L84.9391 35.2298C85.0678 36.0437 85.3248 36.6451 85.7102 37.0339C86.1022 37.4135 86.6177 37.549 87.2565 37.4404Z" fill="white"/>
<path d="M106.192 31.068L108.321 31.4302L108.197 32.2125L108.339 32.2366C108.54 31.9381 108.791 31.7373 109.091 31.6341C109.392 31.523 109.719 31.4976 110.074 31.558C110.666 31.6585 111.112 31.9333 111.414 32.3822C111.716 32.8311 111.82 33.4289 111.726 34.1757L110.733 34.153C110.819 33.6078 110.751 33.1945 110.528 32.9132C110.307 32.6239 110.007 32.4471 109.628 32.3828C109.384 32.3412 109.163 32.3524 108.967 32.4164C108.778 32.4817 108.612 32.5872 108.467 32.7331C108.323 32.8789 108.205 33.0577 108.115 33.2696C108.025 33.4815 107.96 33.7138 107.92 33.9667L107.527 36.4558L109.017 36.7093L108.882 37.5627L105.12 36.9229L105.255 36.0695L106.604 36.2989L107.263 32.1266L106.057 31.9214L106.192 31.068Z" fill="white"/>
<path d="M130.145 43.7949L130.019 43.7255C129.686 43.9535 129.331 44.0685 128.953 44.0704C128.586 44.0691 128.23 43.9739 127.887 43.785C127.536 43.5923 127.238 43.3505 126.991 43.0598C126.745 42.7691 126.56 42.4442 126.439 42.0852C126.324 41.73 126.282 41.3465 126.313 40.9346C126.354 40.5194 126.486 40.0945 126.708 39.66L126.796 39.489C127.014 39.0616 127.279 38.7191 127.59 38.4614C127.905 38.1966 128.237 38.0138 128.585 37.9131C128.936 37.8052 129.297 37.7755 129.667 37.8241C130.038 37.8726 130.391 37.9894 130.727 38.1744C131.106 38.3826 131.392 38.6493 131.585 38.9744C131.788 39.2963 131.889 39.6619 131.886 40.0711L132.012 40.1405L132.438 39.3071L133.259 39.7581L129.884 46.3616C129.76 46.6038 129.581 46.7608 129.346 46.8328C129.119 46.9085 128.886 46.8809 128.648 46.7498L125.252 44.882L125.645 44.1126L128.747 45.8185C128.936 45.9226 129.085 45.8678 129.194 45.6541L130.145 43.7949ZM128.312 43.0059C128.557 43.1408 128.809 43.2198 129.066 43.2429C129.324 43.2659 129.574 43.2344 129.815 43.1482C130.064 43.0659 130.294 42.9323 130.505 42.7473C130.72 42.5553 130.902 42.3132 131.051 42.0211L131.117 41.8929C131.262 41.608 131.35 41.3229 131.379 41.0377C131.411 40.7454 131.391 40.4694 131.317 40.2098C131.25 39.954 131.132 39.7201 130.962 39.5079C130.803 39.2926 130.604 39.1193 130.365 38.9883C130.12 38.8533 129.865 38.7724 129.6 38.7455C129.343 38.7225 129.09 38.7521 128.841 38.8344C128.599 38.9205 128.373 39.0561 128.162 39.241C127.957 39.4299 127.782 39.6667 127.637 39.9517L127.549 40.1226C127.397 40.4218 127.302 40.7121 127.266 40.9934C127.237 41.2786 127.256 41.5491 127.323 41.8049C127.4 42.0574 127.52 42.2878 127.683 42.496C127.85 42.6972 128.06 42.8671 128.312 43.0059Z" fill="white"/>
<path d="M146.776 56.7497L146.679 56.6434C146.264 56.782 145.872 56.7915 145.503 56.672C145.139 56.5585 144.831 56.3629 144.577 56.0852C144.313 55.7958 144.113 55.4821 143.978 55.1443C143.848 54.8008 143.789 54.4449 143.799 54.0764C143.82 53.7083 143.916 53.3393 144.087 52.9694C144.258 52.5995 144.52 52.2408 144.874 51.8932L145.011 51.7586C145.359 51.4166 145.716 51.167 146.081 51.0098C146.447 50.8526 146.804 50.7759 147.154 50.7796C147.515 50.7836 147.857 50.862 148.181 51.0148C148.504 51.1676 148.793 51.3828 149.046 51.6605C149.322 51.9618 149.504 52.298 149.594 52.6692C149.695 53.0407 149.676 53.429 149.537 53.8344L149.635 53.9407L150.302 53.2847L150.933 53.9759L147.561 57.2895C147.39 57.4577 147.377 57.6216 147.523 57.7811L147.725 58.0026L147.109 58.6082L146.68 58.1385C146.496 57.9377 146.408 57.7106 146.415 57.4573C146.427 57.2098 146.53 56.9908 146.724 56.8002L146.776 56.7497ZM145.276 55.5338C145.464 55.7405 145.674 55.8931 145.905 55.9915C146.141 56.0959 146.384 56.1428 146.634 56.1323C146.884 56.1218 147.136 56.0595 147.389 55.9453C147.648 55.8256 147.894 55.6508 148.128 55.4209L148.231 55.32C148.459 55.0957 148.635 54.8556 148.759 54.5997C148.888 54.3382 148.962 54.0751 148.98 53.8106C149.004 53.552 148.972 53.2976 148.884 53.0475C148.807 52.7977 148.677 52.5723 148.494 52.3715C148.305 52.1647 148.095 52.0121 147.865 51.9137C147.634 51.8153 147.391 51.7683 147.135 51.7729C146.891 51.7778 146.639 51.8402 146.381 51.9599C146.127 52.074 145.887 52.2432 145.659 52.4675L145.522 52.6021C145.037 53.0787 144.776 53.5815 144.739 54.1105C144.714 54.6399 144.893 55.1143 145.276 55.5338Z" fill="white"/>
<path d="M156.325 72.0522L155.944 71.1974L161.31 68.6223L161.691 69.4771L160.782 69.9132L160.841 70.0448C161.698 70.0417 162.312 70.4566 162.683 71.2895C162.963 71.9178 162.992 72.5118 162.769 73.0713C162.553 73.6274 162.059 74.0906 161.287 74.4609L158.085 75.9976L157.703 75.1428L160.733 73.6891C161.295 73.4192 161.66 73.0888 161.827 72.6981C161.995 72.3074 161.98 71.8929 161.785 71.4545C161.554 70.9357 161.194 70.6114 160.707 70.4814C160.231 70.3553 159.7 70.4324 159.116 70.7128L156.325 72.0522Z" fill="white"/>
<path d="M170.79 92.4016C171.02 92.3756 171.223 92.4332 171.399 92.5744C171.584 92.7226 171.688 92.9121 171.712 93.1429C171.736 93.3736 171.673 93.578 171.523 93.7559C171.381 93.9409 171.195 94.0464 170.965 94.0724C170.734 94.0984 170.527 94.0373 170.342 93.889C170.167 93.7478 170.067 93.5619 170.043 93.3311C170.018 93.1004 170.077 92.8925 170.219 92.7075C170.369 92.5296 170.559 92.4276 170.79 92.4016ZM163.791 91.4761L164.009 93.5527L168.206 93.0794L168.011 91.2175L168.87 91.1207L169.163 93.9134L164.107 94.4836L164.309 96.417L163.451 96.5139L162.933 91.5729L163.791 91.4761Z" fill="white"/>
<path d="M163.548 118.824C163.248 118.674 162.984 118.483 162.756 118.253C162.525 118.03 162.34 117.774 162.201 117.486C162.07 117.2 161.991 116.887 161.965 116.548C161.939 116.208 161.977 115.849 162.077 115.47C162.183 115.067 162.35 114.703 162.577 114.376C162.802 114.057 163.073 113.797 163.391 113.596C163.717 113.396 164.083 113.266 164.487 113.206C164.89 113.153 165.327 113.192 165.796 113.324L165.935 113.363C166.397 113.493 166.793 113.687 167.121 113.946C167.448 114.212 167.703 114.516 167.885 114.858C168.068 115.2 168.182 115.569 168.226 115.963C168.269 116.366 168.237 116.768 168.13 117.17C168.034 117.534 167.891 117.855 167.702 118.134C167.512 118.413 167.286 118.641 167.025 118.817C166.769 119.002 166.487 119.131 166.178 119.202C165.868 119.281 165.548 119.303 165.217 119.268L165.249 118.305C165.455 118.338 165.663 118.334 165.872 118.293C166.088 118.262 166.285 118.189 166.464 118.073C166.65 117.967 166.813 117.818 166.955 117.625C167.097 117.433 167.206 117.193 167.282 116.907C167.355 116.629 167.371 116.351 167.328 116.073C167.292 115.805 167.202 115.551 167.058 115.311C166.922 115.074 166.738 114.864 166.505 114.682C166.269 114.508 165.998 114.378 165.69 114.291L165.551 114.252C165.228 114.161 164.922 114.129 164.633 114.156C164.35 114.193 164.096 114.28 163.87 114.415C163.643 114.551 163.448 114.729 163.282 114.948C163.124 115.17 163.007 115.424 162.932 115.71C162.856 115.996 162.833 116.255 162.862 116.488C162.898 116.73 162.965 116.945 163.065 117.131C163.17 117.326 163.304 117.493 163.466 117.63C163.627 117.775 163.803 117.891 163.995 117.978L163.548 118.824Z" fill="white"/>
</svg>
