<svg width="200" height="200" viewBox="0 0 200 200" fill="none" xmlns="http://www.w3.org/2000/svg">
<circle cx="100" cy="100" r="100" fill="#181818"/>
<circle cx="100" cy="100" r="100" fill="#181818"/>
<circle cx="100" cy="100" r="79.7" fill="#181818"/>
<circle cx="100" cy="100" r="79.7" fill="#181818"/>
<circle cx="100" cy="100" r="79.7" stroke="white" stroke-width="0.6"/>
<circle cx="100" cy="100" r="54.7" fill="#181818"/>
<circle cx="100" cy="100" r="54.7" fill="#181818"/>
<circle cx="100" cy="100" r="54.7" stroke="white" stroke-width="0.6"/>
<circle cx="98" cy="100" r="29.7" fill="#181818"/>
<circle cx="98" cy="100" r="29.7" fill="white"/>
<circle cx="98" cy="100" r="29.7" stroke="white" stroke-width="0.6"/>
<path d="M45.1182 139.955C44.893 140.108 44.7248 140.29 44.6134 140.5C44.4977 140.704 44.4336 140.922 44.4209 141.153C44.4082 141.384 44.4372 141.62 44.508 141.862C44.5787 142.104 44.6857 142.336 44.829 142.557C44.955 142.752 45.1009 142.919 45.2668 143.058C45.4261 143.201 45.5977 143.312 45.7816 143.39C45.9612 143.462 46.1466 143.49 46.3378 143.477C46.5223 143.468 46.704 143.402 46.8828 143.281L46.9424 143.241C47.1344 143.111 47.2739 142.958 47.3608 142.783C47.4411 142.613 47.481 142.417 47.4804 142.195C47.4689 141.971 47.4202 141.719 47.3344 141.439C47.242 141.163 47.1168 140.852 46.959 140.505C46.5938 139.689 46.4572 138.999 46.5492 138.434C46.6345 137.874 46.9421 137.414 47.4718 137.055L47.591 136.974C47.889 136.772 48.1985 136.64 48.5196 136.577C48.8298 136.511 49.1416 136.522 49.455 136.609C49.7641 136.69 50.066 136.847 50.3608 137.082C50.6556 137.317 50.9311 137.633 51.1874 138.029C51.4784 138.479 51.674 138.922 51.774 139.356C51.8631 139.789 51.8711 140.199 51.798 140.587C51.7139 140.972 51.5587 141.329 51.3323 141.656C51.0992 141.988 50.8006 142.277 50.4364 142.524L50.1384 142.726L49.5912 141.88L49.8295 141.718C50.4387 141.305 50.787 140.827 50.8744 140.285C50.9575 139.736 50.8036 139.159 50.4127 138.554C50.0739 138.03 49.7072 137.714 49.3127 137.604C48.9072 137.493 48.5157 137.565 48.1383 137.821L48.0787 137.861C47.7145 138.108 47.5254 138.434 47.5115 138.84C47.4932 139.239 47.6386 139.773 47.9478 140.443C48.1317 140.83 48.2707 141.2 48.3647 141.552C48.4478 141.901 48.4784 142.228 48.4564 142.533C48.4278 142.843 48.339 143.125 48.19 143.381C48.0409 143.636 47.8174 143.865 47.5195 144.067L47.4003 144.148C47.1288 144.332 46.8436 144.443 46.5446 144.482C46.2456 144.52 45.9482 144.495 45.6523 144.405C45.3522 144.309 45.0678 144.149 44.7993 143.926C44.5198 143.7 44.2693 143.415 44.0478 143.073C43.7915 142.676 43.6198 142.285 43.5325 141.9C43.4409 141.508 43.4217 141.139 43.4747 140.794C43.5211 140.453 43.6387 140.142 43.8274 139.859C44.0052 139.574 44.2332 139.338 44.5113 139.149L44.9284 138.866L45.4757 139.713L45.1182 139.955Z" fill="white"/>
<path d="M33.6441 119.916L33.4148 119.009L39.1683 117.484L39.3976 118.392L38.3536 118.668L38.3889 118.808C38.8071 118.896 39.1627 119.062 39.4557 119.307C39.7486 119.553 39.9539 119.908 40.0715 120.373C40.1518 120.691 40.1722 121 40.1325 121.3C40.0986 121.591 40.0018 121.861 39.842 122.11C39.6802 122.351 39.4584 122.567 39.1765 122.758C38.8926 122.941 38.5458 123.086 38.1359 123.195L34.7024 124.105L34.4731 123.197L37.7906 122.318C38.3938 122.158 38.8032 121.917 39.0189 121.595C39.2346 121.274 39.2778 120.857 39.1484 120.345C39.0093 119.794 38.7149 119.413 38.2654 119.201C37.8061 118.983 37.2632 118.957 36.6369 119.123L33.6441 119.916Z" fill="white"/>
<path d="M37.4729 95.8052L37.4013 96.7384L33.143 96.3957C32.8639 96.3732 32.6318 96.4187 32.4465 96.5322C32.2533 96.6451 32.146 96.8411 32.1246 97.1203C32.1044 97.3835 32.1875 97.6069 32.374 97.7904C32.5532 97.9654 32.8461 98.0692 33.2527 98.1019L37.2717 98.4255L37.2001 99.3587L32.894 99.0121C32.6309 98.9909 32.4101 99.0454 32.2316 99.1755C32.0451 99.3049 31.9427 99.4893 31.9243 99.7286C31.9023 100.016 31.9888 100.247 32.1839 100.424C32.3796 100.592 32.6449 100.689 32.9798 100.716L37.0706 101.046L36.9989 101.979L31.0661 101.501L31.1378 100.568L31.7837 100.62L31.7947 100.477C31.5236 100.35 31.3319 100.183 31.2196 99.9728C31.0993 99.7625 31.0496 99.5217 31.0704 99.2505C31.0925 98.9634 31.1863 98.7342 31.3519 98.5629C31.5181 98.3837 31.7236 98.2678 31.9683 98.2152L31.9793 98.0717C31.4579 97.7568 31.2199 97.3043 31.2652 96.714C31.2995 96.2673 31.4693 95.9359 31.7748 95.7197C32.0728 95.4949 32.4491 95.4008 32.9037 95.4374L37.4729 95.8052Z" fill="white"/>
<path d="M40.7939 79.6347L40.4281 80.4963L34.9906 78.0757L35.3564 77.2141L36.2772 77.6241L36.3335 77.4915C35.7611 76.8339 35.6531 76.0854 36.0094 75.2459C36.2783 74.6126 36.6898 74.196 37.2439 73.9962C37.7907 73.793 38.4551 73.8655 39.2371 74.2137L42.4821 75.6582L42.1163 76.5198L39.0467 75.1533C38.4766 74.8996 37.9944 74.8381 37.5999 74.9689C37.2055 75.0998 36.9145 75.3861 36.7269 75.828C36.5049 76.3508 36.5089 76.8429 36.7389 77.3042C36.9646 77.755 37.3735 78.1121 37.9655 78.3756L40.7939 79.6347Z" fill="white"/>
<path d="M62.3526 39.4213L64.961 44.3405C65.2796 44.9412 65.6577 45.3213 66.0952 45.4806C66.5361 45.6291 67.0257 45.5536 67.564 45.2542C68.1024 44.9549 68.4274 44.5774 68.5389 44.1219C68.6537 43.6554 68.5518 43.1218 68.2332 42.521L65.6247 37.6018L66.5057 37.112L69.1142 42.0312C69.5714 42.8934 69.6962 43.6751 69.4886 44.3763C69.281 45.0775 68.7856 45.6457 68.0025 46.0812C67.2195 46.5166 66.4842 46.6325 65.7969 46.429C65.1096 46.2255 64.5373 45.6926 64.0801 44.8303L61.4716 39.9111L62.3526 39.4213Z" fill="white"/>
<path d="M85.8651 40.8914L84.9425 41.0495L83.5954 32.8068L84.518 32.6487L84.669 33.5724L84.8109 33.5481C84.9578 33.1577 85.1978 32.8406 85.5309 32.5969C85.8626 32.3452 86.2414 32.1829 86.6672 32.1099C87.0299 32.0478 87.3839 32.0561 87.7291 32.1349C88.0743 32.2138 88.3898 32.3585 88.6755 32.5693C88.9691 32.7787 89.2172 33.0568 89.4198 33.4035C89.6302 33.7489 89.7742 34.1585 89.8516 34.6322L89.8903 34.8691C89.969 35.3507 89.9677 35.7892 89.8864 36.1846C89.8052 36.58 89.659 36.9256 89.448 37.2215C89.2448 37.5161 88.9886 37.7588 88.6794 37.9498C88.3689 38.1329 88.0283 38.2562 87.6577 38.3197C87.4685 38.3521 87.2714 38.3615 87.0665 38.3479C86.863 38.3422 86.6634 38.3115 86.4678 38.2557C86.2789 38.1907 86.0992 38.1079 85.9287 38.0072C85.757 37.8987 85.605 37.7624 85.4728 37.5984L85.3309 37.6227L85.8651 40.8914ZM87.3252 37.4757C87.6091 37.4271 87.8616 37.3351 88.0826 37.1998C88.3024 37.0567 88.4842 36.8794 88.628 36.6681C88.7797 36.4554 88.8815 36.2107 88.9336 35.934C88.9935 35.6558 88.997 35.3549 88.9441 35.0312L88.9054 34.7944C88.8538 34.4786 88.7561 34.2031 88.6123 33.968C88.4751 33.7237 88.301 33.5263 88.0899 33.3758C87.8855 33.216 87.6527 33.1058 87.3915 33.045C87.1381 32.9829 86.8735 32.9755 86.5975 33.0228C86.3215 33.0701 86.0743 33.1693 85.8558 33.3204C85.636 33.4635 85.4509 33.6454 85.3006 33.866C85.1581 34.0852 85.0575 34.3378 84.9988 34.6238C84.9389 34.9019 84.9348 35.1989 84.9864 35.5147L85.0096 35.6568C85.0625 35.9805 85.1621 36.2678 85.3085 36.5187C85.4536 36.7616 85.6284 36.963 85.8328 37.1228C86.0451 37.2812 86.278 37.3914 86.5313 37.4535C86.7846 37.5156 87.0493 37.523 87.3252 37.4757Z" fill="white"/>
<path d="M105.735 36.1404L107.864 36.5052L108.94 29.9206L106.882 29.5679L107.021 28.7152L110.002 29.226L108.787 36.6633L110.916 37.0281L110.776 37.8808L105.596 36.993L105.735 36.1404Z" fill="white"/>
<path d="M131.014 36.5014C131.122 36.2964 131.284 36.1622 131.499 36.0986C131.724 36.0318 131.939 36.0548 132.141 36.1675C132.344 36.2802 132.476 36.4497 132.537 36.6759C132.609 36.8989 132.591 37.1129 132.482 37.3178C132.373 37.5228 132.206 37.6587 131.981 37.7255C131.766 37.7891 131.557 37.7645 131.354 37.6517C131.152 37.539 131.014 37.3711 130.942 37.1481C130.881 36.9219 130.905 36.7064 131.014 36.5014ZM126.309 41.7375L128.134 42.7522L130.113 39.0204L128.476 38.1107L128.881 37.3474L131.335 38.7119L128.952 43.2071L130.651 44.1518L130.246 44.9151L125.904 42.5008L126.309 41.7375Z" fill="white"/>
<path d="M147.387 50.1942L148.611 51.5625L149.714 50.5279C149.912 50.3418 150.131 50.2511 150.372 50.2559C150.617 50.2666 150.831 50.3734 151.012 50.5761L152.581 52.3289L151.95 52.92L150.606 51.4176C150.462 51.2567 150.303 51.2583 150.128 51.4225L149.235 52.26L150.891 54.1112L150.261 54.7023L148.605 52.8512L144.894 56.3325L144.27 55.635L147.981 52.1536L146.757 50.7854L147.387 50.1942Z" fill="white"/>
<path d="M161.019 68.6752L161.75 70.3984L163.987 69.4028L164.352 70.2643L162.116 71.2599L163.016 73.3807L162.227 73.7321L161.327 71.6113L157.797 73.1828C157.577 73.2804 157.51 73.4286 157.594 73.6274L158.255 75.1849L157.466 75.5363L156.674 73.6695C156.567 73.4191 156.56 73.1772 156.652 72.9436C156.747 72.7174 156.919 72.5489 157.168 72.4383L160.961 70.7497L160.229 69.0266L161.019 68.6752Z" fill="white"/>
<path d="M170.04 92.7127C170.272 92.6941 170.473 92.7582 170.645 92.9049C170.825 93.0589 170.924 93.2516 170.942 93.4829C170.96 93.7142 170.891 93.9164 170.736 94.0894C170.589 94.2697 170.4 94.3692 170.169 94.3878C169.938 94.4064 169.732 94.3387 169.552 94.1847C169.38 94.038 169.285 93.849 169.267 93.6177C169.25 93.3864 169.314 93.1805 169.461 93.0002C169.616 92.8272 169.809 92.7314 170.04 92.7127ZM163.068 91.5645L163.228 93.6464L167.438 93.3074L167.295 91.4409L168.156 91.3716L168.371 94.1714L163.3 94.5796L163.448 96.5179L162.587 96.5873L162.207 91.6338L163.068 91.5645Z" fill="white"/>
<path d="M161.791 113.688L162.02 112.781L167.774 114.305L167.544 115.212L166.57 114.954L166.535 115.094C167.202 115.651 167.425 116.372 167.201 117.257C167.033 117.924 166.69 118.4 166.172 118.684C165.662 118.971 164.994 119.005 164.166 118.786L160.733 117.876L160.962 116.969L164.21 117.829C164.813 117.989 165.3 117.973 165.67 117.782C166.04 117.59 166.284 117.262 166.402 116.796C166.541 116.246 166.461 115.761 166.162 115.343C165.87 114.934 165.41 114.647 164.784 114.481L161.791 113.688Z" fill="white"/>
<path d="M153.43 137.208L153.508 137.087C153.314 136.724 153.232 136.349 153.262 135.964C153.295 135.59 153.418 135.238 153.63 134.909C153.848 134.573 154.108 134.295 154.412 134.076C154.715 133.857 155.047 133.705 155.407 133.62C155.762 133.542 156.138 133.541 156.537 133.618C156.937 133.706 157.339 133.886 157.743 134.16L157.902 134.268C158.299 134.537 158.61 134.845 158.834 135.19C159.065 135.54 159.215 135.898 159.284 136.263C159.359 136.633 159.357 137.004 159.279 137.376C159.2 137.747 159.056 138.095 158.848 138.417C158.613 138.78 158.33 139.042 157.997 139.203C157.667 139.375 157.303 139.437 156.905 139.39L156.827 139.511L157.601 140.036L157.093 140.822L150.955 136.66C150.73 136.508 150.592 136.308 150.542 136.062C150.488 135.822 150.534 135.588 150.682 135.359L152.786 132.104L153.501 132.589L151.579 135.562C151.462 135.743 151.503 135.901 151.701 136.036L153.43 137.208ZM154.352 135.427C154.2 135.662 154.102 135.91 154.058 136.17C154.014 136.43 154.023 136.687 154.087 136.943C154.146 137.205 154.256 137.454 154.418 137.689C154.587 137.929 154.807 138.141 155.078 138.326L155.198 138.406C155.463 138.586 155.732 138.706 156.007 138.767C156.289 138.832 156.559 138.841 156.818 138.795C157.073 138.755 157.31 138.66 157.531 138.51C157.754 138.371 157.939 138.188 158.087 137.959C158.239 137.724 158.339 137.473 158.388 137.206C158.432 136.947 158.425 136.685 158.366 136.423C158.302 136.168 158.19 135.922 158.028 135.687C157.861 135.458 157.646 135.254 157.381 135.074L157.222 134.966C156.944 134.778 156.669 134.65 156.399 134.582C156.124 134.522 155.859 134.511 155.604 134.551C155.352 134.602 155.118 134.7 154.902 134.843C154.692 134.991 154.509 135.185 154.352 135.427Z" fill="white"/>
</svg>
